<svg xmlns="http://www.w3.org/2000/svg" width="122.848" height="107.061" viewBox="0 0 122.848 107.061">
  <g id="Grupo_20" data-name="Grupo 20" transform="translate(-31.519 -27.97)">
    <path id="Trazado_2098" data-name="Trazado 2098" d="M37.417,63.842c-.036-.44-.081-.878-.126-1.317s-.107-.878-.188-1.307a5.2,5.2,0,0,0-.143-.626,2.506,2.506,0,0,0-.109-.287.477.477,0,0,0-.161-.205.088.088,0,0,0-.053-.027l-.081-.027-.161-.054-.321-.1c-.109-.036-.216-.061-.322-.1s-.2-.061-.3-.08c-.09.5-.171,1-.243,1.522-.036.25-.071.5-.1.76-.017.117-.036.241-.044.358s-.027.233-.036.358c-.027.233-.054.475-.073.716a24.4,24.4,0,0,1,2.517,1.1Z" transform="translate(2.402 22.135)" fill="#fff"/>
    <path id="Trazado_2099" data-name="Trazado 2099" d="M39.98,52.766h.18a.048.048,0,0,1,.036.01.124.124,0,0,1,.09.044.019.019,0,0,1,.017.019l.019.008a.1.1,0,0,0,.027.036.475.475,0,0,0,.025.063.988.988,0,0,1,.037.178.764.764,0,0,1-.01.161,1.611,1.611,0,0,1-.027.306,10.913,10.913,0,0,1-.25,1.119c-.109.367-.224.735-.35,1.093-.008.044-.036.088-.044.134a2.709,2.709,0,0,1,.706.438,28.424,28.424,0,0,1,3.627-5.846.905.905,0,0,0-.251-.153c-.143.2-.3.394-.457.582a13.093,13.093,0,0,1-1.11,1.208c.241-.492.519-.957.806-1.424.107-.161.205-.331.312-.492a5.419,5.419,0,0,0-1.594.054l.188-.341a3.4,3.4,0,0,1,1.433-.536c.2-.008.367-.008.528,0a.1.1,0,0,0,.027-.036c.3-.448.626-.888.94-1.317.08-.107.153-.224.233-.331.036-.054.063-.107.1-.161a.3.3,0,0,0,.027-.063c-.008-.027-.063-.063-.107-.1s-.117-.044-.18-.071a.46.46,0,0,0-.115-.027c-.081.046-.161.1-.234.144s-.134.088-.2.124c-.394.243-.635.412-.742.484a.136.136,0,0,0-.036.027.03.03,0,0,0-.019.008s-.161.126-.438.385c-.081.081-.18.17-.287.268-.063.063-.134.126-.207.2l-.151.151c-.2.188-.421.412-.653.664-.109.107-.216.222-.322.339-.429.457-.9.995-1.4,1.6-.144.17-.278.35-.421.528s-.3.368-.44.565l.385-.027C39.783,52.776,39.881,52.776,39.98,52.766Z" transform="translate(5.425 13.495)" fill="#fff"/>
    <path id="Trazado_2100" data-name="Trazado 2100" d="M35.768,67.283l.107.053.1.054c.036.027.063.044.1.071a3.375,3.375,0,0,1,.339.287c.1.107.2.224.287.331.09.126.17.241.251.358a8.5,8.5,0,0,1,.421.743,14.328,14.328,0,0,1,.645,1.567c.178.528.331,1.066.474,1.6.027.126.063.243.09.367.421.3.913.6,1.28.9l.243,1.361a47.128,47.128,0,0,1-.691-8.926,11.254,11.254,0,0,0-1.343-1.2v.071A24.32,24.32,0,0,1,37.96,67.6c-.107-.894-.188-1.772-.268-2.658l-.027-.394A9.822,9.822,0,0,0,35.014,63.2v-1.28c-.08.984-.124,2-.124,3.035,0,.394.008.8.017,1.192.008.25.019.5.027.742l.743.35Z" transform="translate(2.351 23.673)" fill="#fff"/>
    <path id="Trazado_2101" data-name="Trazado 2101" d="M37.874,57.658l.081.008.027.008h.027a.275.275,0,0,1,.088.054c.019.009.036.036.054.044a.135.135,0,0,0,.036.054l.019.054.017.044a1.346,1.346,0,0,1,.09.35c.008.107.027.222.027.331a10.49,10.49,0,0,1,.008,1.307c-.019.429-.054.859-.09,1.29-.017.2-.036.384-.063.572a9.459,9.459,0,0,1,1.12.9,40.056,40.056,0,0,1,2.273-7.324,1.764,1.764,0,0,0-.6-.457c-.107.233-.205.475-.3.716a21.967,21.967,0,0,1-1,2.05c.2-.743.421-1.46.653-2.184.08-.251.161-.5.251-.743a6.433,6.433,0,0,0-2.033-.26l.511-.842a4.254,4.254,0,0,1,1.943-.143,1.035,1.035,0,0,0,.044-.153c.126-.358.251-.716.367-1.074s.233-.708.322-1.066c.019-.088.036-.178.054-.26a.652.652,0,0,0,.008-.124.131.131,0,0,0,0-.081l-.1-.017-.287-.027c-.161-.008-.322-.027-.492-.046h-.008c-.126.161-.251.333-.367.511q-.552.751-1.1,1.612c-.519.8-1.039,1.682-1.541,2.622-.088.161-.178.322-.258.492-.3.555-.574,1.129-.842,1.728.241-.008.484-.008.725,0C37.652,57.63,37.759,57.639,37.874,57.658Z" transform="translate(3.689 15.812)" fill="#fff"/>
    <path id="Trazado_2102" data-name="Trazado 2102" d="M36.235,63.234l.17.027.08.008a.323.323,0,0,1,.109.036.746.746,0,0,1,.3.278,2.856,2.856,0,0,1,.161.322,5.623,5.623,0,0,1,.214.645c.117.446.2.886.27,1.334s.115.878.151,1.324c.037.341.054.672.073,1a7.215,7.215,0,0,1,1.433,1.03v.484a59.828,59.828,0,0,1,.859-8.229,8,8,0,0,0-.995-1c-.017.117-.036.243-.053.367-.144.842-.314,1.692-.538,2.526.036-.869.09-1.719.161-2.578.019-.207.046-.4.063-.618a3.579,3.579,0,0,0-2.193-.806l.241-1.137a2.448,2.448,0,0,1,2.1.35c.017-.107.025-.224.036-.35.036-.421.08-.85.107-1.271.044-.429.071-.85.08-1.271,0-.1,0-.205-.008-.3a2.03,2.03,0,0,0-.036-.287.2.2,0,0,0-.027-.081h-.008l-.081-.025c-.1-.027-.2-.054-.3-.073-.251-.044-.5-.088-.752-.115-.178.394-.35.8-.511,1.208-.107.251-.205.511-.3.771-.071.17-.134.339-.2.519-.1.268-.2.545-.287.832a33.656,33.656,0,0,0-1.056,3.814c-.071.314-.134.636-.2.959a.393.393,0,0,0-.019.107.25.25,0,0,1-.008.08c.214.019.421.046.635.073C36.011,63.19,36.128,63.217,36.235,63.234Z" transform="translate(2.608 18.722)" fill="#fff"/>
    <path id="Trazado_2103" data-name="Trazado 2103" d="M44.638,79.068c.322.411.643.788.949,1.137Z" transform="translate(9.148 35.631)" fill="#fff"/>
    <path id="Trazado_2104" data-name="Trazado 2104" d="M37.537,68.734c-.18-.519-.377-1.029-.6-1.521a5.852,5.852,0,0,0-.823-1.37,2.873,2.873,0,0,0-.278-.278.522.522,0,0,1-.071-.054.543.543,0,0,1-.08-.053A.678.678,0,0,1,35.6,65.4l-.09-.054-.591-.339a41.843,41.843,0,0,0,.448,4.513v-.9s1.29.681,2.624,1.55C37.849,69.693,37.706,69.209,37.537,68.734Z" transform="translate(2.372 25.828)" fill="#fff"/>
    <path id="Trazado_2105" data-name="Trazado 2105" d="M42.952,76.6c-.3-.618-.591-1.261-.878-1.942l.823,2.023Z" transform="translate(7.36 32.556)" fill="#fff"/>
    <path id="Trazado_2106" data-name="Trazado 2106" d="M45.484,80.074a.026.026,0,0,1,.008-.017c-.08-.081-.151-.161-.233-.251Z" transform="translate(9.582 36.146)" fill="#fff"/>
    <path id="Trazado_2107" data-name="Trazado 2107" d="M40.837,70.347l.01-.01a.313.313,0,0,1-.019-.063Z" transform="translate(6.492 29.499)" fill="#fff"/>
    <path id="Trazado_2108" data-name="Trazado 2108" d="M40.723,78.617a.26.26,0,0,0-.063-.073c-.063-.088-.126-.17-.2-.268l-.188-.26-.178-.268-.09-.134c-.027-.054-.054-.1-.081-.153l-.3-.547a.619.619,0,0,0-.08-.124l-.09-.136a1.448,1.448,0,0,0-.18-.233,3.734,3.734,0,0,0-.922-.8,3.176,3.176,0,0,0-.322-.161c.161.251.331.5.5.752.446.609.76,1.03,1.012,1.361l.643.8C40.357,78.445,40.535,78.527,40.723,78.617Z" transform="translate(4.539 33.119)" fill="#fff"/>
    <path id="Trazado_2109" data-name="Trazado 2109" d="M39.131,75.267c-.126-.233-.26-.465-.385-.7l-.339-.645c-.109-.216-.224-.429-.322-.645-.054-.115-.109-.224-.161-.331l-.144-.339c-.053-.1-.1-.207-.143-.306l-.09-.151a.84.84,0,0,0-.09-.153,6.044,6.044,0,0,0-1.728-1.747,34.109,34.109,0,0,0,1.183,3.519v.019C37.332,74.067,38.218,74.659,39.131,75.267Z" transform="translate(2.935 29.484)" fill="#fff"/>
    <path id="Trazado_2110" data-name="Trazado 2110" d="M41.518,81.522a3.025,3.025,0,0,1,.429.519l.17.277.171.26.08.134.081.126.178.26c.134.161.251.331.385.5.214.277.438.555.67.823a21.02,21.02,0,0,1,2.507,1.351l.932,1.183c-.134-.071-1.2-.664-2.373-1.3.519.591,1.057,1.19,1.577,1.8a19.382,19.382,0,0,1-1.962-1.674c-.241-.233-.474-.475-.706-.716-.2-.109-.385-.207-.574-.306a28.031,28.031,0,0,0,8.846,6.3C49.37,89.338,42.369,83.652,40,71.459l.019.143s-.672-.608-1.271-1.11c.151.886.26,1.782.322,2.677-.251-1.012-.494-2.023-.754-3.026a20.876,20.876,0,0,0-2.909-2.13l-.2-.205c.008.1.027.187.044.287a37.757,37.757,0,0,0,.825,3.778v.008a4.657,4.657,0,0,1,1,.572A4.872,4.872,0,0,1,38.134,73.5a1.746,1.746,0,0,1,.107.16l.109.153c.063.107.115.224.178.341s.107.205.161.312l.161.322c.224.421.448.842.681,1.263.268.484.528.976.788,1.46.681.446,1.307.842,1.7,1.064l.806,1.577c-.09-.063-.859-.609-1.782-1.271.394.76.779,1.531,1.137,2.31-.572-.779-1.1-1.594-1.611-2.419-.09-.134-.17-.268-.251-.4-.957-.672-1.969-1.361-2.551-1.709A29.66,29.66,0,0,0,39.862,80.6a3.006,3.006,0,0,1,.555.16A3.249,3.249,0,0,1,41.518,81.522Z" transform="translate(2.571 27.778)" fill="#fff"/>
    <path id="Trazado_2111" data-name="Trazado 2111" d="M59.759,84.132H56.975l-.268,3.07h2.784a.813.813,0,0,0,.913-.833l.126-1.4C60.573,84.409,60.324,84.132,59.759,84.132Z" transform="translate(17.564 39.162)" fill="#fff"/>
    <path id="Trazado_2112" data-name="Trazado 2112" d="M86.131,84.052H83.76a.821.821,0,0,0-.913.833l-.385,4.467c-.054.555.205.833.76.833H85.6a.822.822,0,0,0,.913-.833l.385-4.467C86.948,84.33,86.688,84.052,86.131,84.052Z" transform="translate(35.518 39.106)" fill="#fff"/>
    <path id="Trazado_2113" data-name="Trazado 2113" d="M153.613,61.1a4.787,4.787,0,0,0-4.057-2.22H131.1a4.823,4.823,0,0,0-4.459,2.989l-8.739,21.5a.13.13,0,0,1-.249-.017l-4.817-20.753a4.8,4.8,0,0,0-4.683-3.715H91.631a.137.137,0,0,1-.081-.243c.618-.4.467-.957.716-2.157a.11.11,0,0,1,.063-.1,5.131,5.131,0,0,0,2.857-4.549,5.966,5.966,0,0,0-.322-1.952.114.114,0,0,1,.019-.107,6.674,6.674,0,0,0,1.029-3.625,6.351,6.351,0,0,0-.115-1.093,6.4,6.4,0,0,0,.788-2.758,7.165,7.165,0,0,0-1.244-4.225.132.132,0,0,1-.019-.1,5.289,5.289,0,0,0,.358-1.3,8.239,8.239,0,0,0-.457-3.1,1.56,1.56,0,0,1-.08-.278A6.942,6.942,0,0,0,93.9,31a3.6,3.6,0,0,0-.285-.278c-.9-.681-3.608-2.756-9.07-2.756-2.65,0-5.927.3-7.9,2.568a.053.053,0,0,1-.046.019c-3.089.5-3.751,3.42-3.939,5.47a5.4,5.4,0,0,0,.251,1.638.145.145,0,0,1-.027.117,5.668,5.668,0,0,0-.932,5.435.139.139,0,0,1-.008.107,5.343,5.343,0,0,0-.572,1.154,5.667,5.667,0,0,0-.153,3.25.149.149,0,0,1-.019.109c-.528.742-1.826,1.45-2.166,2.354-.019.036-.044.071-.09.071a40.474,40.474,0,0,0-5.077.555,47.685,47.685,0,0,0-18.5,7.171c-.071.046-.143.109-.214.161A41.474,41.474,0,0,0,31.519,89.066c0,10.116,3.07,20.609,10.564,28.1a.13.13,0,0,1-.088.222H39.434a2.291,2.291,0,0,0-2.274,2.113l-1.146,13a2.3,2.3,0,0,0,2.274,2.526h99.953a2.3,2.3,0,0,0,2.274-2.113l1.146-13a2.3,2.3,0,0,0-2.274-2.526H130.1a.128.128,0,0,1-.117-.187l23.932-51.49A4.818,4.818,0,0,0,153.613,61.1ZM80.045,33.3a.556.556,0,0,1,.143-.322c.306-.375,1.263-.94,4.289-.94a11.687,11.687,0,0,1,6.974,2.078l.1.071s-.044.691.153.861a2.461,2.461,0,0,1,.4,1.558c0,.618-.93,1.3-1.315,1.556-.054-.036-.1-.071-.153-.107-.339-.233-.716-.457-1.091-.681,1.728-.25,1.548-1.772-1.826-2.48a16.733,16.733,0,0,0-3.359-.314c-.706,0-1.37.037-1.96.09-.446-.107-.886-.188-1.288-.26-.314-.044-.645-.1-1.012-.143a.122.122,0,0,0-.054-.008Zm8.784,3.018v.536a28.265,28.265,0,0,0-3.743-1.485A6.9,6.9,0,0,1,88.829,36.314ZM77.458,39.86a18.176,18.176,0,0,1,3.294.358h.036c.063.008.126.025.188.036a36.006,36.006,0,0,1,3.929,1.012.033.033,0,0,1,.027.008c.161.044.331.1.492.153,1.012.331,3.519,1.173,3.922,1.3a.387.387,0,0,0,.1.008,5.6,5.6,0,0,0,2.2-.555.326.326,0,0,0,.134-.465,8.608,8.608,0,0,0-2.945-2.186c-.027-.008-.063-.036-.09-.044-.9-.492-1.942-1.11-3.043-1.594a.3.3,0,0,0-.09-.044c-.126-.054-.26-.109-.385-.17a21.055,21.055,0,0,0-2.991-1.013,13.5,13.5,0,0,0-3.464-.465,16.726,16.726,0,0,0,2.846.762l-.509,1.548c-1.853-.178-5.068-1.692-5.068-2.819,0-1.147,1.629-1.175,1.736-1.175a16.7,16.7,0,0,1,1.864.109,1.824,1.824,0,0,1,.205.017c.063.01.134.019.2.027.331.036.662.09,1,.144.214.036.429.071.653.124.214.037.438.09.662.136.107.025.207.053.314.071a.218.218,0,0,0,.071.017c.735.18,1.46.385,2.176.628.1.036.2.071.3.1l.375.134a.113.113,0,0,1,.063.027A22.836,22.836,0,0,1,88.542,37.3a1.093,1.093,0,0,1,.178.09.429.429,0,0,1,.117.063.287.287,0,0,1,.08.044,15.55,15.55,0,0,1,1.5.9l.18.124c.063.036.115.081.178.126,1.514,1.085,2.454,2.247,2.454,3.286V42c-.036.959-1.1,1.46-1.971,1.711-.09.027-.178.053-.26.071-.1.027-.178.044-.268.063a1.965,1.965,0,0,1,.233.153l.216.161c.733.536,1.433.922,1.512,2.174A1.1,1.1,0,0,1,91.8,47.46a9.543,9.543,0,0,1-3.106-.044c.008-.3.08-1.29.08-1.29s2.256.662,2.4.161c.063-.2-.779-.788-2.132-1.468a2.126,2.126,0,0,0-.2-.1A30.135,30.135,0,0,0,85.212,43.2a.579.579,0,0,0-.109-.036,25,25,0,0,0-4.333-1.119,14.075,14.075,0,0,0-2.256-.188h-.161l1.629.233c-.027.008-.358.949-.421,1.02C78.3,42.894,75,42.205,75,40.951,75,40.182,75.971,39.86,77.458,39.86Zm4.011-.059c.054-.178.764-2.434.764-2.434A39.2,39.2,0,0,1,89.1,40.331s-.221,1.779-.239,1.779A27.343,27.343,0,0,0,81.469,39.8Zm6.226,7.777c-2.015-.788-6.3-1.853-8.016-2.274l.732-2.458c0,.019,1.141.1,1.811.273.555.126,4,1.314,4.712,1.609.01,0,1.152.485,1.152.494C87.88,46.145,87.73,47.408,87.695,47.577ZM75.5,45.221h.01a34.679,34.679,0,0,1,4.7.913c.071.027.153.046.241.073,1.487.358,3.135.823,4.71,1.343.08.027.153.044.224.071q1.021.349,1.96.725c.019.01.036.01.054.019.285.115.555.224.815.35a12.238,12.238,0,0,1,2.6,1.458,2.15,2.15,0,0,1,1.022,1.541c0,1.843-4.1,1.261-4.36,1.261,0,0,.09-1.091.126-1.37l2.622-.017A10.757,10.757,0,0,0,87.4,49.9l-.054-.027c-.6-.26-1.29-.536-2.1-.8-.233-.073-.482-.144-.733-.224a31,31,0,0,0-4.3-.923l-.564-.08s-4.272-.574-4.817-1.02C74.271,46.359,74.137,45.232,75.5,45.221Zm11.236,7.5c-.341-.107-2.828-.723-3.257-.847-.457-.144-.932-.3-1.414-.44l-.645-.2c-.492-.153-3.43-1.163-3.447-1.163l.482-1.743c1.047.188,4.644.976,5.557,1.236l.134.037c.207.061.4.124.6.187,1.889.618,2.193,1.173,2.2,1.3A15.941,15.941,0,0,1,86.732,52.724Zm-12.2-2.891s.536.161,1.387.421,2.033.626,3.3,1.02l.348.107c.878.27,1.8.565,2.687.842.9.278,1.772.565,2.534.806.088.027.178.054.26.081.1.036.178.061.268.088.591.2,1.1.368,1.5.492a.331.331,0,0,0,.09.036c.187.073.339.126.457.171a4.614,4.614,0,0,1,1.181.626c.017.008.036.027.054.036a1.1,1.1,0,0,1,.438,1.039c0,.375-.626.635-.859.716a.224.224,0,0,1-.09.027v-.421a6.069,6.069,0,0,0-1.477-.708c-1.621-.626-4.262-1.45-6.67-2.157-2.739-.815-5.175-1.5-5.408-1.558a2.392,2.392,0,0,1-.492-.2.009.009,0,0,0-.01-.008.817.817,0,0,1-.348-.788C73.68,49.842,74.457,49.833,74.53,49.833ZM36.3,88.627a37.894,37.894,0,0,1,6.042-20.556,32.567,32.567,0,0,1,6.1-7.19l.017-.017.019-.019A43.285,43.285,0,0,1,65.263,54.39a36.954,36.954,0,0,1,6.151-.538c1.039,0,2,.054,2.865.134-.358-.151-.681-.285-.949-.4-.421-.178-.7-.3-.771-.322a.62.62,0,0,1-.385-.779c.8.216,4.029,1.129,7.288,2.078.019.008.046.019.071.027,1.137.339,2.356.7,3.529,1.066l.143.044c.134.036.268.08.4.117l.019.025h.063c.708.234,1.351.44,1.87.618a.383.383,0,0,0,.1.036l.019.01c.054.008.09.036.134.044a.543.543,0,0,0,.1.036,6.6,6.6,0,0,1,1.217.5.916.916,0,0,1-.465.143l.019-.143-2.5-.234-.752-.1-.153-.025-.653-.081-.241-.036-1.9-.26L80,56.279h-.019a.579.579,0,0,0-.107-.046,14.114,14.114,0,0,0-1.361-.482c-.205-.063-.421-.126-.645-.18-.115-.036-.233-.063-.35-.09-.17-.044-.331-.08-.509-.115-.216-.054-.44-.1-.672-.144-.287-.053-.591-.1-.894-.143-.287-.044-.591-.08-.9-.117-.547-.063-1.119-.107-1.736-.134-.117-.008-.243-.017-.377-.017-.331-.01-.662-.019-1.012-.019a36.3,36.3,0,0,0-5.99.528,46.457,46.457,0,0,0-5.085,1.173c-.708.207-1.4.421-2.05.645-.331.117-.662.233-.984.358s-.645.243-.949.358c-.18.063-.358.144-.538.216-.367.143-.716.3-1.056.448-.171.071-.341.151-.5.222-.547.243-1.047.484-1.5.716-.233.117-.465.234-.681.35-.322.17-.626.331-.894.484s-.53.3-.752.429a.725.725,0,0,1,.2.027.518.518,0,0,1,.233.126.25.25,0,0,1,.044.063l.008.017.01.01v.025a.061.061,0,0,1,.008.037v.025a.418.418,0,0,1-.036.134,1.936,1.936,0,0,1-.081.207,4.067,4.067,0,0,1-.178.367c-.243.429-.5.85-.771,1.254a1.81,1.81,0,0,1,.368.134A15.9,15.9,0,0,1,54.77,59.44l.027.143a20.48,20.48,0,0,0-4.208,3.86l.008.017-.886,1.236a1.4,1.4,0,0,0,.008-.188,32.131,32.131,0,0,0-3.537,5.74c.01.008.019.027.036.044L45.5,71.75v-.027a43.8,43.8,0,0,0-3.294,16.751c-.339,23.144,13.035,30.63,13.035,30.63l.063.09c.054.017.1.044.153.063.26.107.519.222.8.331H53.839a28.878,28.878,0,0,1-9.391-6.966C39.12,106.632,36.3,98.332,36.3,88.627ZM86.4,66.271c.278.339.555.7.806,1.064.143.188.268.377.394.565.367.536.725,1.091,1.056,1.682.4.653.762,1.353,1.112,2.069.115.224.222.448.321.681.216.457.421.93.618,1.414.153.377.306.752.448,1.137a.749.749,0,0,1,.046.126c.115.314.233.626.331.94.088.25.17.5.25.752.1.322.2.645.287.967s.188.653.268.984.171.653.243.984.153.672.224,1.012l.134.708c.08.429.153.859.214,1.288.081.547.153,1.085.207,1.64.027.233.053.474.071.716.027.268.044.547.063.823.017.251.036.511.044.771.027.536.036,1.074.036,1.611,0,14.979-7.726,27.128-17.262,27.128-6.66,0-12.453-5.944-15.318-14.656A39.9,39.9,0,0,1,59.06,88.206a39.379,39.379,0,0,1,2.515-14.118c3.026-7.8,8.5-13.01,14.736-13.01a4.577,4.577,0,0,1,.492.027c.09.008.188.019.287.036a6.565,6.565,0,0,1,.762.134c.088.019.187.036.285.063.117.027.243.054.358.09l-.008.08-.027.171-.017.178-.036.243-.036.268a8.829,8.829,0,0,0-2.061-.35c-5.657,0-10.842,4.647-13.859,12.418A38.45,38.45,0,0,0,60,88.206a39.325,39.325,0,0,0,1.889,12.185c2.848,8.631,8.381,13.994,14.424,13.994,9,0,16.323-11.747,16.323-26.179,0-1.074-.046-2.14-.136-3.177v-.01a34.149,34.149,0,0,0-7.108-18.5l.161-1.173.008-.063C85.846,65.6,86.125,65.93,86.4,66.271ZM60.312,118.888a5.548,5.548,0,0,0,.484.7h-.519a3.908,3.908,0,0,1-.358-.475,1.653,1.653,0,0,1-.241-.572.818.818,0,0,1,.025-.385.877.877,0,0,1,.046-.09c.017-.036.036-.054.044-.08s.036-.046.054-.073l.063-.063a2.505,2.505,0,0,1,.474-.367c.17-.1.341-.188.511-.268.339-.161.681-.3,1.03-.429s.7-.243,1.047-.358c.17-.054.348-.117.519-.188a1.494,1.494,0,0,0,.241-.107.556.556,0,0,0,.224-.153.579.579,0,0,1-.18.216c-.071.053-.151.107-.222.161-.161.107-.322.187-.484.277-.331.18-.664.331-.995.492s-.662.314-.976.484c-.161.08-.312.17-.457.26a1.754,1.754,0,0,0-.385.3.4.4,0,0,0-.107.144.284.284,0,0,0-.008.151A1.327,1.327,0,0,0,60.312,118.888ZM57.2,117.035c-.321-.394-.608-.8-.886-1.225-.151-.243-.3-.484-.438-.726a1.482,1.482,0,0,0-.8,1.12,18.575,18.575,0,0,0,3.393,2.991l-.222.17s-14.89-8.532-12.025-35.15c3.045-28.427,21.739-29.206,21.739-29.206l.26.1s-6.643.509-12.562,7.368c.2-.054.85-.224,1.711-.429a15.977,15.977,0,0,1,2.739-2.274,6.952,6.952,0,0,1,1.657-.788,3.9,3.9,0,0,1,.93-.17h.233c.081.008.153.008.234.017a3.616,3.616,0,0,1,.446.046,8.426,8.426,0,0,1,1.774.367l.214.08.207.09c.071.027.143.063.205.09s.134.071.205.107a2.508,2.508,0,0,1,.7.555,2.105,2.105,0,0,0-.368-.251l-.088-.053-.109-.046a1.155,1.155,0,0,0-.2-.088,5.139,5.139,0,0,0-.832-.26,10.4,10.4,0,0,0-1.738-.233c-.151-.01-.3-.01-.438-.01-.071,0-.153-.008-.224-.008l-.205.008a3.346,3.346,0,0,0-.815.18c-.134.044-.26.1-.394.151s-.26.117-.385.18q-.39.2-.752.429a14.425,14.425,0,0,0-1.416,1.02c-.285.224-.564.458-.832.691a24.684,24.684,0,0,1,4.413-.628s1.826-.1,2.195,1.1l-.44.591s-.457-1.816-7.234-.1c-.672.628-1.326,1.271-1.969,1.925a21.72,21.72,0,0,1,1.405-1.78c-.511.134-1.049.3-1.629.465a31.079,31.079,0,0,0-3.546,5.8,16.47,16.47,0,0,1,2.381-.976c.115-.151.224-.3.331-.448a18.45,18.45,0,0,1,1.28-1.494,8.168,8.168,0,0,1,1.55-1.263,4.226,4.226,0,0,1,.932-.44,3.519,3.519,0,0,1,.518-.115,1.306,1.306,0,0,1,.27-.01.619.619,0,0,1,.126,0l.124.01a10.614,10.614,0,0,1,1.979.249c.081.019.161.046.243.063l.241.073c.081.025.153.061.233.088.036.019.081.027.117.046l.115.053a.648.648,0,0,1,.109.054l.115.054a1.545,1.545,0,0,1,.207.134,1.729,1.729,0,0,1,.2.151.861.861,0,0,1,.161.188,1.415,1.415,0,0,0-.4-.287c-.071-.025-.143-.071-.214-.1l-.117-.044a.6.6,0,0,1-.115-.036,5.642,5.642,0,0,0-.94-.216c-.161-.027-.322-.036-.484-.053s-.322-.027-.484-.036-.322-.019-.484-.019-.322,0-.484-.008l-.124.008h-.117a.919.919,0,0,0-.224.027,2.572,2.572,0,0,0-.438.107,4.5,4.5,0,0,0-.825.421,8.93,8.93,0,0,0-1.441,1.227,18.466,18.466,0,0,0-1.236,1.387,14.444,14.444,0,0,1,3.376-.536,3.074,3.074,0,0,1,2.775,1.217l-.438.636a3.927,3.927,0,0,0-3.072-.815,19.073,19.073,0,0,0-3.841,1.074v.008c-.752,1.039-1.468,2.113-2.157,3.2.251-.591.547-1.163.859-1.736.224-.421.467-.832.718-1.244a14.523,14.523,0,0,0-2.05,1.012,46.244,46.244,0,0,0-2.212,6.939,17.429,17.429,0,0,1,2.139-1.056c.019-.037.027-.063.046-.1.268-.565.563-1.129.886-1.675a12.393,12.393,0,0,1,1.083-1.567,7.13,7.13,0,0,1,.681-.7,3.326,3.326,0,0,1,.4-.3,2.959,2.959,0,0,1,.457-.233,1.511,1.511,0,0,1,.53-.107h.484l.474.019.484.025c.314.027.635.063.949.117.161.027.314.054.475.09.071.027.151.044.224.071a1.043,1.043,0,0,1,.222.1,2.632,2.632,0,0,0-.465-.1c-.153-.019-.314-.027-.465-.036-.322-.008-.636-.019-.949-.008l-.475.008-.474.027-.234.008-.126.008a.42.42,0,0,0-.107.008,1.148,1.148,0,0,0-.4.109,2.685,2.685,0,0,0-.716.492,5.339,5.339,0,0,0-.609.672,13.618,13.618,0,0,0-1.029,1.531c-.251.419-.494.85-.716,1.288,3.965-1.378,6.124.054,6.124.054v.859a9.2,9.2,0,0,0-7.056.976c-.027.046-.044.081-.063.117-.519,1.127-1.02,2.264-1.522,3.41a29.828,29.828,0,0,1,1.057-3.24,17.1,17.1,0,0,0-1.747,1.173c-.268,1.405-.511,2.882-.7,4.45-.161,1.154-.287,2.264-.377,3.357a17.847,17.847,0,0,1,1.862-.986,15.763,15.763,0,0,1,.789-2.5,6.769,6.769,0,0,1,.984-1.7,4.7,4.7,0,0,1,.35-.367,4.914,4.914,0,0,1,.411-.312,2.874,2.874,0,0,1,.475-.234c.088-.025.17-.044.26-.061l.071-.019h.054l.124-.019a10.206,10.206,0,0,1,1.962-.124l.241.017.251.027a1.182,1.182,0,0,1,.241.036l.117.019.126.025.115.027.117.036c.08.027.161.054.233.081a1.852,1.852,0,0,1,.224.115.594.594,0,0,1,.187.144,1.207,1.207,0,0,0-.429-.188c-.08-.019-.161-.044-.233-.054l-.115-.017-.126-.019a5.542,5.542,0,0,0-.949-.017,3.936,3.936,0,0,0-.475.036c-.161.008-.322.036-.475.053l-.474.073c-.161.027-.314.063-.475.088l-.115.019-.054.019-.054.008c-.071.017-.143.044-.205.063a2.279,2.279,0,0,0-.385.205,2.646,2.646,0,0,0-.339.287,2.493,2.493,0,0,0-.3.331,6.193,6.193,0,0,0-.5.771,7.361,7.361,0,0,0-.4.832,15.116,15.116,0,0,0-.626,1.763c-.036.117-.063.224-.1.341a10.652,10.652,0,0,1,4.449-.913l2,.188.151,1.127a14.441,14.441,0,0,0-7.073,1.487c-.241,1.091-.457,2.2-.645,3.313,0-.636.054-1.271.109-1.908.044-.394.1-.8.151-1.2a12.274,12.274,0,0,0-1.638,1.093,45.79,45.79,0,0,0,.314,8.237c.115-.054,1.039-.53,2.05-1a15.668,15.668,0,0,1,.3-2.66,5.517,5.517,0,0,1,.7-1.808,2.1,2.1,0,0,1,.762-.716c.036-.019.08-.036.115-.054l.134-.044.136-.036c.044-.01.08-.01.115-.019.161-.027.314-.054.475-.08a16.561,16.561,0,0,1,1.9-.216c.323-.019.636-.036.957-.036s.636.017.959.053c-.322.01-.636.046-.949.081s-.628.071-.94.126c-.618.1-1.244.214-1.853.35-.153.036-.3.071-.465.107l-.109.027-.1.025-.088.037a.248.248,0,0,0-.09.044,1.561,1.561,0,0,0-.574.582,4.8,4.8,0,0,0-.375.806,8.681,8.681,0,0,0-.243.867,15.252,15.252,0,0,0-.277,1.809c-.019.188-.036.367-.054.555a12.886,12.886,0,0,1,4.817-1.156H55.9l.233.815a25.589,25.589,0,0,0-6.679,1.916c-.046,1.137-.054,2.274-.046,3.42-.107-.608-.178-1.225-.233-1.853-.036-.457-.063-.922-.08-1.387a9.116,9.116,0,0,0-1.755,1.387,36.6,36.6,0,0,0,2.094,7.378,8.241,8.241,0,0,1,1.9-1.146,11.033,11.033,0,0,1-.2-2.427,5.7,5.7,0,0,1,.134-.922,2.556,2.556,0,0,1,.412-.878,1.589,1.589,0,0,1,.385-.35,1.476,1.476,0,0,1,.474-.205c.153-.036.3-.071.448-.1l.44-.1c.591-.126,1.181-.233,1.78-.322l.9-.134c.153-.027.3-.046.448-.071a1.482,1.482,0,0,0,.429-.117,1.124,1.124,0,0,1-.2.107l-.216.081c-.151.044-.3.08-.438.126-.3.08-.582.151-.878.233-.582.143-1.156.3-1.738.457l-.867.233a1.124,1.124,0,0,0-.6.429,1.979,1.979,0,0,0-.312.725,3.576,3.576,0,0,0-.117.833,9.286,9.286,0,0,0,.063,1.719c.019.178.036.348.063.519a8.176,8.176,0,0,1,2.337-.448c2.9-.143,3.732-.815,3.732-.815l.44.7a7.9,7.9,0,0,1-2.75,1.129,10.956,10.956,0,0,0-3.5.976c.205,1.047.448,2.086.708,3.125-.243-.547-.448-1.1-.636-1.665-.143-.421-.268-.842-.385-1.263a5.532,5.532,0,0,0-1.378,1.512,29.134,29.134,0,0,0,3.474,5.543,10,10,0,0,1,1.458-.842.221.221,0,0,0-.025-.046c-.1-.241-.188-.474-.278-.716a6.867,6.867,0,0,1-.2-.752,3.257,3.257,0,0,1-.071-.788,1.625,1.625,0,0,1,.224-.823,1.155,1.155,0,0,1,.312-.341,1.441,1.441,0,0,1,.4-.205.894.894,0,0,0,.1-.027l.1-.027.178-.044.377-.1c.251-.063.492-.117.743-.17s.5-.107.752-.153l.752-.143.752-.126c.126-.027.251-.044.375-.071.063-.019.117-.027.18-.046a.367.367,0,0,0,.17-.08.484.484,0,0,1-.151.115,1.6,1.6,0,0,1-.18.073c-.117.053-.241.088-.358.134-.241.08-.492.151-.733.224l-1.46.429-.735.205-.358.117-.178.053-.1.027c-.027.008-.046.019-.073.027a.844.844,0,0,0-.268.143.945.945,0,0,0-.2.216,1.348,1.348,0,0,0-.153.609,3.086,3.086,0,0,0,.054.689,6.2,6.2,0,0,0,.18.7c.071.251.151.492.25.743a2.855,2.855,0,0,1,.878-.188c3.68-.063,4.915-1.307,4.915-1.307l.412.565-.35.3a5.534,5.534,0,0,1-2.936,1.414,6.388,6.388,0,0,0-2.4.457Q56.645,115.989,57.2,117.035ZM43.051,91.672c0-30.066,16.438-34.435,16.438-34.435l.465.144S44.581,62.7,44.581,90.4c.492,22.713,12.535,28.6,12.535,28.6l.564.591H57.25C51.43,115.862,43.051,106.408,43.051,91.672Zm23.055-34.99c1.862-.107,3.339.107,3.581,1.263l-.3.153s.143-1.443-3.967-.815c-.94.143-1.684.26-2.274.358-.976.5-1.933,1.02-2.892,1.548a20.892,20.892,0,0,1,1.916-1.37c-.833.153-1.137.233-1.236.26L62,57.515s.492-.161,1.217-.341c.4-.233.789-.438,1.191-.643a16.517,16.517,0,0,1,1.531-.664,8.838,8.838,0,0,1,1.621-.457l.214-.027.216-.017a3.429,3.429,0,0,1,.438-.008c.153,0,.287.017.421.025s.278.036.412.046a11.48,11.48,0,0,1,1.648.3,2.847,2.847,0,0,1,.777.331.9.9,0,0,1,.09.063c.027.027.054.046.081.071l.071.081c.017.027.036.063.054.09a.638.638,0,0,1,.08.4.774.774,0,0,0-.134-.367,1,1,0,0,0-.314-.233,2.914,2.914,0,0,0-.76-.216c-.268-.044-.538-.081-.806-.1s-.547-.044-.815-.063c-.143-.008-.277-.008-.412-.019s-.277-.017-.4-.008a2.665,2.665,0,0,0-.385.019l-.2.027a1.567,1.567,0,0,0-.2.036,9.845,9.845,0,0,0-1.539.446c-.429.161-.859.341-1.28.538C65.255,56.763,65.693,56.709,66.105,56.682Zm-.2,61.437.429.474a3.885,3.885,0,0,1-1.585.995H62.237A38.022,38.022,0,0,0,65.908,118.119Zm15.81-60.675.538.08.251.036.151.019.5.071,1,.134.287.044.788.1.171.027-.027.216-.071.492-.161,1.154c-.09-.088-.18-.17-.27-.26l.27.27-.161,1.083v.008L84.521,64.2v.008l-.134.923v.017l-.036.224-.3,2.05v.036l-.1.563-5.066-.662.411-2.794v-.017l.268-1.826.027-.2.036-.243.073-.509.618-4.289.008-.027.027-.2Zm-1.28-.959c.027.008.054.027.081.036s.036.027.053.036a.46.46,0,0,1-.071-.036A.368.368,0,0,1,80.439,56.485Zm-16.966,41.6v.161a.722.722,0,0,1,.008.134.29.29,0,0,1-.008.09,1.427,1.427,0,0,1-1.387,1.057c-.144,0-.243-.054-.385-.054a.243.243,0,0,1-.073-.019.03.03,0,0,0-.017-.008c-.126-.411-.241-.842-.358-1.271-.143-.547-.268-1.091-.385-1.646s-.224-1.137-.322-1.719a.749.749,0,0,1-.017-.144c-.063-.358-.117-.725-.161-1.091-.054-.394-.1-.8-.134-1.208-.036-.287-.054-.574-.081-.861-.008-.126-.017-.25-.017-.367-.019-.205-.027-.412-.037-.618-.036-.6-.044-1.208-.044-1.818,0-.25,0-.509.008-.76v-.331c.01-.27.019-.538.036-.806.019-.421.046-.842.073-1.253s.071-.825.115-1.227c.027-.205.054-.4.071-.609a36.215,36.215,0,0,1,.9-4.691c.2-.708.412-1.405.645-2.078l.008.01a4.555,4.555,0,0,1,.511.25,1.624,1.624,0,0,1,.725-.528c.1,0,.241-.044.339-.044a1.218,1.218,0,0,1,1.192,1.181.617.617,0,0,1,.008.126v.134l.054.044a4.092,4.092,0,0,1,1.692,1.047,2.9,2.9,0,0,0-.306.243,3.171,3.171,0,0,0-.25.251,3.322,3.322,0,0,0-.44.662,3.531,3.531,0,0,0-.17.367,3.12,3.12,0,0,0-.107.341.786.786,0,0,0-.046.151c-.017.09-.025.18-.036.278,0,.036-.008.08-.008.115v.842l.341.35a3.276,3.276,0,0,1,.474.591c.071.134.143.251.205.358a1.55,1.55,0,0,0,.081.134c.036.1.054.18.09.287l.017.09.008.017a4.185,4.185,0,0,1,.314,1.407v.061a.639.639,0,0,1,0,.18v.036a2,2,0,0,1-.036.26,1.617,1.617,0,0,1-.044.216,1.913,1.913,0,0,1-.306.618,1.992,1.992,0,0,1-.126.161c-.107.124-.222.26-.358.4a4.13,4.13,0,0,0-1.217,2.212l-.019.09v.044c0,.071-.025.205-.053.394-.027.233-.054.457-.09.672-.027.268-.063.528-.09.769-.008.09-.017.18-.027.26-.008.126-.017.243-.036.368s-.025.233-.036.348a.2.2,0,0,0,0,.071c-.017.1-.017.2-.027.3s-.008.178-.017.268c-.008.115-.019.224-.019.331-.008.233-.008.438,0,.635,0,.063.01.126.01.18-.01.008-.01.008-.01.019s.01.017.01.017v.008c0,.019,0,.027.008.036.008.09.017.161.027.234s.027.143.036.205a2.982,2.982,0,0,0,.689,1.3l-.027.027a8.762,8.762,0,0,1-1.361,1.091.326.326,0,0,0-.008.1.539.539,0,0,0-.008.126,1.389,1.389,0,0,0,0,.188V97.9A1.314,1.314,0,0,0,63.473,98.081Zm10.5-26.644a4.65,4.65,0,0,0,.161.861,1,1,0,0,1-.09.107c-.117.126-.224.241-.331.367-.305.341-.618.689-.923,1.022a.805.805,0,0,1-.08.1,8.927,8.927,0,0,0-4.96-1.541,8.742,8.742,0,0,0-4.433,1.2.026.026,0,0,0-.017.008h-.019c.2-.394.4-.788.618-1.163a21.442,21.442,0,0,1,3.089-4.333c.161-.161.322-.333.484-.484a11.953,11.953,0,0,1,8.352-3.751,10.889,10.889,0,0,1,2.293.241L78.1,64.1v.216L77.691,67.2a2.184,2.184,0,0,0-.394.036.076.076,0,0,1-.046.01h-.115l-.144.036a4.328,4.328,0,0,0-1.414.662c-.1.08-.2.153-.3.241s-.18.171-.268.26c-.063.073-.126.144-.18.216a3.631,3.631,0,0,0-.563.932c-.019.053-.046.115-.063.17l-.054.161c-.017.053-.036.115-.054.17-.017.09-.044.17-.061.26-.01.063-.019.126-.027.2-.01.054-.019.126-.027.188v.008a1.816,1.816,0,0,0-.019.216,1.389,1.389,0,0,0-.008.187v.01A2.522,2.522,0,0,0,73.975,71.436Zm-10.09,33.386a9.034,9.034,0,0,0,3.868.9c4.932,0,9.14-4.252,10.9-10.323l.171.019h.017l.027.008.626.044.046.01H82.1a1.835,1.835,0,0,0,1.826-1.826V92.065A1.833,1.833,0,0,0,82.1,90.239h-2.57c.019-.4.027-.8.027-1.2,0-.429-.008-.861-.036-1.281-.008-.222-.027-.446-.046-.67s-.044-.457-.071-.689a1.292,1.292,0,0,0-.017-.18c-.027-.233-.063-.474-.1-.708a.1.1,0,0,0-.01-.053c-.036-.251-.08-.492-.126-.743-.036-.205-.071-.4-.124-.609a1.783,1.783,0,0,0-.046-.205l3.376.457a1.338,1.338,0,0,0,.251.017,1.935,1.935,0,0,0,1.925-1.682L86.259,70c.224.314.448.645.662.986.107.17.205.339.314.509a21.779,21.779,0,0,1,1.236,2.293,32.284,32.284,0,0,1,2.964,11.236c.063.608.1,1.217.126,1.843.025.609.044,1.219.044,1.826,0,.519-.008,1.03-.036,1.541-.019.492-.046.984-.081,1.468-.572,7.27-3.142,13.582-6.83,17.511-.136.144-.27.287-.412.421s-.287.287-.429.421c-.306.287-.628.555-.949.806-.171.134-.341.26-.511.385s-.358.241-.538.358a2.686,2.686,0,0,1-.285.178c-.188.117-.385.233-.574.331a11.836,11.836,0,0,1-1.263.592c-.224.088-.446.17-.67.241a11.574,11.574,0,0,1-1.979.44c-.2.017-.377.036-.563.044-.027,0-.054.008-.073,0-.2.017-.384.027-.582.027-4.754,0-9.014-3.294-11.915-8.568a.579.579,0,0,1-.037-.073ZM84.1,69.279a1.015,1.015,0,0,1,.876,1.154L83.34,82.538a.749.749,0,0,1-.733.636.224.224,0,0,1-.081-.01l-3.849-.528-1.244-.153H77.35l-.322-.053-.859-.107a1.439,1.439,0,0,0-.735.205.71.71,0,0,0-.088.044.861.861,0,0,0-.224.161.522.522,0,0,0-.126.117.03.03,0,0,0-.008.017h-.01c-.008.019-.025.027-.036.046l-.027.036.01.008v.019a1.536,1.536,0,0,1,.358.1c.036.017.08.044.115.063a1.156,1.156,0,0,1,.161.088c.1.073.2.153.3.233a2.39,2.39,0,0,1,.377.457c.017.027.036.054.054.09s.036.063.053.09l.071.143c.019.046.046.1.063.153a2.884,2.884,0,0,1,.18,1.039,3.553,3.553,0,0,0-1.057,1.012,3.173,3.173,0,0,0-.312.626c-.027.071-.054.153-.081.224s-.036.161-.053.233a3.065,3.065,0,0,0-.1.762A3.313,3.313,0,0,0,77.234,91.4a5.961,5.961,0,0,0,2.212.09l.1-.054H82.1a.633.633,0,0,1,.618.628v1.594a.631.631,0,0,1-.618.618H79.588l-.626-.046-2.884-.339a.3.3,0,0,0-.09-.01.7.7,0,0,0-.725.681V98.9a.916.916,0,0,1-.913.913H69.489a.91.91,0,0,1-.913-.913V96.73a3.61,3.61,0,0,0-1.4-.574,1.8,1.8,0,0,1-.528-.053,1.9,1.9,0,0,1-1.3-1.344c-.243-.966.35-4.6.35-4.8.222-1.55,2.1-1.889,2.1-4.191a5.088,5.088,0,0,0-.385-1.933c-.044-.188-.1-.331-.143-.484-.1-.188-.243-.375-.339-.563a3.982,3.982,0,0,0-.672-.878V81.68a1.759,1.759,0,0,1,.241-.825,1.842,1.842,0,0,1,.628-.716,1.957,1.957,0,0,1,.618-.3c.115-.008.214-.008.321-.008a1.554,1.554,0,0,1,.932.26,3.5,3.5,0,0,1,.216-.689,3.969,3.969,0,0,1,.367-.609c.287-.3.626-.582.913-.913.788-.8,1.611-1.621,2.4-2.444.268-.277.519-.555.769-.832.626-.672,1.254-1.4,1.881-2.069a2.882,2.882,0,0,1-.385-1.4,2.713,2.713,0,0,1,1.1-2.212,3,3,0,0,1,1.012-.484,1.163,1.163,0,0,0,.241-.025,1.2,1.2,0,0,1,.2-.019l.4.054ZM50.544,127.9l-.063.7a2.535,2.535,0,0,1-2.882,2.649q-.713,0-1.5-.027l-1.281-.063q-1.41-.066-2.928-.188l.171-1.889c2.532.144,4.252.207,5.156.207a.72.72,0,0,0,.76-.689l.109-1.263H44.877a2.7,2.7,0,0,1-2.078-.664,2.744,2.744,0,0,1-.474-2.13l.036-.412a2.639,2.639,0,0,1,3.035-2.792h4.9l-.17,1.952H45.79a.813.813,0,0,0-.913.84l-.027.278c-.044.555.207.832.762.832h2.515a2.524,2.524,0,0,1,1.952.645A2.559,2.559,0,0,1,50.544,127.9Zm10.566-5.846-.565,6.4a2.639,2.639,0,0,1-3.035,2.794h-3.2a2.725,2.725,0,0,1-2.078-.662,2.77,2.77,0,0,1-.475-2.132l.628-7.117h2.507l-.618,7.117c-.054.555.205.833.76.833h2.094a.821.821,0,0,0,.913-.833l.609-7.037.008-.08h2.515Zm9.257,5.846-.063.7a3,3,0,0,1-.815,2,2.955,2.955,0,0,1-2.069.645c-.474,0-.976-.008-1.5-.027l-1.28-.063q-1.423-.066-2.928-.188l.161-1.889c2.543.144,4.262.207,5.165.207a.738.738,0,0,0,.519-.188.717.717,0,0,0,.234-.5l.115-1.263H64.691a2.68,2.68,0,0,1-2.069-.664,2.716,2.716,0,0,1-.475-2.13l.037-.412a3.573,3.573,0,0,1,.528-1.736,1.688,1.688,0,0,1,.322-.394,2.041,2.041,0,0,1,.635-.394V121.6h.009a4.048,4.048,0,0,1,1.541-.26h4.9l-.08.9c-.09,0-.188,0-.278-.008.09.008.18.008.278.019l-.081.93-.008.109H65.6a.821.821,0,0,0-.913.84l-.019.278c-.054.555.205.832.76.832H67.94a2.558,2.558,0,0,1,1.96.645A2.6,2.6,0,0,1,70.367,127.9Zm10.233-3.77-.117,1.4a3.179,3.179,0,0,1-.85,2.122,3.11,3.11,0,0,1-2.184.664H74.1l-.25,2.794H71.343l.689-7.879.08-.94.081-.949h5.864a3.485,3.485,0,0,1,1.594.312,1.446,1.446,0,0,1,.474.35A2.712,2.712,0,0,1,80.6,124.134Zm9.079-.84H84.441l-.161,1.889H88.4l-.17,1.95H84.11l-.18,2.025h5.238l-.178,1.952H81.245l.859-9.768h7.745Zm8.943,7.816H95.973l-2.838-5.866-.511,5.866H90.108l.859-9.768h2.651l2.838,5.864.511-5.864h2.515Zm-7.4-13.923a40.445,40.445,0,0,0,5.6-10.771.126.126,0,0,1,.243.01l3.133,10.8a.124.124,0,0,1-.117.17H91.325A.127.127,0,0,1,91.218,117.187ZM108.677,127.9l-.063.7a2.991,2.991,0,0,1-.823,2,2.913,2.913,0,0,1-2.059.645q-.713,0-1.5-.027l-1.281-.063q-1.423-.066-2.928-.188l.161-1.889c2.534.144,4.262.207,5.158.207a.748.748,0,0,0,.528-.188.76.76,0,0,0,.233-.5l.117-1.263H103a2.682,2.682,0,0,1-2.069-.664,2.71,2.71,0,0,1-.474-2.13l.036-.412a2.63,2.63,0,0,1,3.035-2.792h4.9l-.17,1.952h-4.342a.822.822,0,0,0-.913.84l-.027.278c-.044.555.205.832.771.832h2.507a2.558,2.558,0,0,1,1.96.645A2.593,2.593,0,0,1,108.677,127.9Zm6.258-4.61h-1.253l-.511,5.864h1.254l-.171,1.952h-5.022l.17-1.952h1.254l.511-5.864h-1.254l.17-1.952h5.024Zm9.992.7-.394,4.467a2.639,2.639,0,0,1-3.035,2.794h-3.491a2.187,2.187,0,0,1-2.543-2.794l.394-4.467a2.63,2.63,0,0,1,3.035-2.794h3.483a2.724,2.724,0,0,1,2.077.664A2.764,2.764,0,0,1,124.927,123.992Zm-5.228-3.223.519-1.181.518-1.191h2.517l-.877,1.191-.869,1.181Zm12.346,6.438.509-5.864h2.507l-.85,9.768h-2.649l-2.838-5.866-.511,5.866H125.7l.859-9.768h2.651Zm4.539-35.643-11.6,24.952H105.024L98.373,93.542l-2.293-7.906a51.787,51.787,0,0,1-3.41,21.058c-2.3,5.694-5.543,10.08-9.429,12.893H81.595l.008-.01c.268-.16.528-.339.8-.528.134-.09.26-.188.394-.287.2-.143.394-.285.582-.446.2-.144.385-.306.574-.467s.367-.312.547-.474a23.511,23.511,0,0,0,2.283-2.408c.143-.17.287-.35.421-.528.08-.1.17-.207.241-.314.2-.251.394-.511.582-.779q.4-.563.779-1.154c.126-.207.26-.421.385-.628a32.841,32.841,0,0,0,1.78-3.339c.18-.377.35-.752.511-1.137.216-.492.421-.995.609-1.5.134-.358.268-.716.394-1.083s.251-.726.367-1.1.233-.735.341-1.11c.1-.314.187-.628.268-.94.115-.44.233-.886.339-1.343.09-.385.18-.779.26-1.164.117-.547.224-1.093.322-1.648s.188-1.11.268-1.674q.257-1.68.377-3.384c.027-.35.054-.7.071-1.039s.046-.7.054-1.047c.027-.7.044-1.4.044-2.1,0-.536-.008-1.064-.027-1.6-.008-.224-.017-.457-.025-.681v-.107c-.019-.331-.037-.672-.063-1a1,1,0,0,0-.01-.17c-.017-.251-.036-.492-.053-.735-.036-.4-.073-.8-.117-1.2-.044-.482-.1-.966-.17-1.45a42.786,42.786,0,0,0-3.68-12.687l-.008-.027c-.161-.339-.333-.679-.5-1.012A2.835,2.835,0,0,0,90.4,67c-.3-.555-.609-1.1-.932-1.638-.2-.333-.4-.664-.618-.986s-.411-.618-.626-.913a27.8,27.8,0,0,0-2.059-2.578l.017-.143.144-1.057c1.324,1.38,3.374,3.95,3.374,3.95h18.462l8.327,35.9v.017L131.105,63.63h18.462Z" transform="translate(0 0)" fill="#fff"/>
    <path id="Trazado_2114" data-name="Trazado 2114" d="M56.061,61.386c-1.28,0-2.319,1.477-2.319,3.313s1.039,3.322,2.319,3.322,2.329-1.487,2.329-3.322S57.35,61.386,56.061,61.386Zm1.908,3.223a3.662,3.662,0,0,1-.287,1.451,3.718,3.718,0,0,1-.205.375,1.526,1.526,0,0,1-.251.322,1.305,1.305,0,0,1-.94.44,1.163,1.163,0,0,1-.662-.207.251.251,0,0,1-.063-.044.814.814,0,0,0,.143.008c.806,0,1.468-1,1.468-2.256s-.662-2.256-1.468-2.256a1.007,1.007,0,0,0-.429.1,1.336,1.336,0,0,1,1.012-.511,1.278,1.278,0,0,1,.94.438,2.47,2.47,0,0,1,.457.7A3.648,3.648,0,0,1,57.968,64.609Z" transform="translate(15.496 23.301)" fill="#fff"/>
  </g>
</svg>
