<svg xmlns="http://www.w3.org/2000/svg" width="440.275" height="383.695" viewBox="0 0 440.275 383.695">
  <g id="Grupo_21" data-name="Grupo 21" transform="translate(-31.519 -27.97)" style="mix-blend-mode: exclusion;isolation: isolate">
    <path id="Trazado_2098" data-name="Trazado 2098" d="M43.759,74.508c-.128-1.575-.292-3.145-.45-4.72-.195-1.569-.383-3.145-.675-4.684a18.631,18.631,0,0,0-.511-2.245,8.979,8.979,0,0,0-.389-1.028,1.708,1.708,0,0,0-.578-.736.315.315,0,0,0-.189-.1l-.292-.1-.578-.195-1.15-.353c-.389-.128-.773-.219-1.156-.353-.353-.091-.706-.219-1.058-.286-.322,1.794-.614,3.6-.87,5.456-.128.894-.255,1.794-.353,2.725-.061.42-.128.864-.158,1.284s-.1.833-.128,1.283c-.1.833-.195,1.7-.262,2.567a87.442,87.442,0,0,1,9.021,3.948Z" transform="translate(17.506 161.354)" fill="#ef9f0c"/>
    <path id="Trazado_2099" data-name="Trazado 2099" d="M41.738,66.831h.645a.174.174,0,0,1,.128.037.445.445,0,0,1,.322.158.067.067,0,0,1,.061.067l.067.03a.37.37,0,0,0,.1.128,1.7,1.7,0,0,0,.091.225,3.538,3.538,0,0,1,.134.639,2.739,2.739,0,0,1-.036.578,5.773,5.773,0,0,1-.1,1.095,39.111,39.111,0,0,1-.894,4.009c-.389,1.314-.8,2.634-1.253,3.917-.03.158-.128.316-.158.481a9.708,9.708,0,0,1,2.531,1.569,101.87,101.87,0,0,1,13-20.95,3.245,3.245,0,0,0-.9-.547c-.511.706-1.058,1.411-1.636,2.086a46.925,46.925,0,0,1-3.978,4.331c.864-1.764,1.861-3.431,2.889-5.1.383-.578.736-1.186,1.119-1.764a19.42,19.42,0,0,0-5.712.195l.675-1.223a12.192,12.192,0,0,1,5.134-1.922c.706-.03,1.314-.03,1.892,0a.371.371,0,0,0,.1-.128c1.089-1.606,2.245-3.181,3.37-4.72.286-.383.547-.8.833-1.186.128-.195.225-.383.353-.578a1.088,1.088,0,0,0,.1-.225c-.03-.1-.225-.225-.383-.353-.195-.1-.42-.158-.645-.255a1.65,1.65,0,0,0-.414-.1c-.292.164-.578.353-.839.517s-.481.316-.706.444c-1.411.87-2.275,1.478-2.658,1.734a.489.489,0,0,0-.128.1.109.109,0,0,0-.067.03s-.578.45-1.569,1.381c-.292.292-.645.608-1.028.961-.225.225-.481.45-.742.712l-.541.541c-.706.675-1.509,1.478-2.342,2.378-.389.383-.772.8-1.156,1.217-1.539,1.636-3.212,3.565-5.006,5.742-.517.608-1,1.253-1.509,1.892S39.816,66.29,39.3,67c.487-.036.931-.067,1.381-.1C41.033,66.868,41.385,66.868,41.738,66.831Z" transform="translate(39.545 98.371)" fill="#ef9f0c"/>
    <path id="Trazado_2100" data-name="Trazado 2100" d="M38.035,81.141l.383.189c.128.067.225.128.353.195.128.1.225.158.353.255a12.1,12.1,0,0,1,1.217,1.028c.353.383.706.8,1.028,1.186.322.45.608.864.9,1.284a30.466,30.466,0,0,1,1.509,2.664,51.349,51.349,0,0,1,2.312,5.615c.639,1.892,1.186,3.82,1.7,5.742.1.45.225.87.322,1.314,1.509,1.065,3.273,2.153,4.587,3.242l.87,4.878a168.9,168.9,0,0,1-2.476-31.99,40.336,40.336,0,0,0-4.812-4.3V72.7a87.159,87.159,0,0,1-.383,9.593c-.383-3.206-.675-6.351-.961-9.526l-.1-1.411a35.2,35.2,0,0,0-9.5-4.848V61.919c-.286,3.528-.444,7.154-.444,10.876,0,1.411.03,2.859.061,4.27.03.894.067,1.794.1,2.658l2.664,1.253Z" transform="translate(17.135 172.562)" fill="#ef9f0c"/>
    <path id="Trazado_2101" data-name="Trazado 2101" d="M40.624,75.775l.292.03.1.03h.1a.986.986,0,0,1,.316.195c.067.03.128.128.195.158a.483.483,0,0,0,.128.195l.067.195.061.158a4.822,4.822,0,0,1,.322,1.253c.03.383.1.8.1,1.186a37.594,37.594,0,0,1,.03,4.684c-.067,1.539-.195,3.078-.322,4.623-.061.706-.128,1.375-.225,2.05a33.9,33.9,0,0,1,4.015,3.242A143.556,143.556,0,0,1,53.94,67.526a6.321,6.321,0,0,0-2.147-1.636c-.383.833-.736,1.7-1.089,2.567a78.731,78.731,0,0,1-3.6,7.348c.706-2.664,1.509-5.231,2.342-7.829.286-.9.578-1.8.9-2.664a23.055,23.055,0,0,0-7.287-.931l1.831-3.017a15.245,15.245,0,0,1,6.965-.511,3.71,3.71,0,0,0,.158-.548c.45-1.284.9-2.567,1.314-3.851s.833-2.537,1.156-3.82c.067-.316.128-.639.195-.931a2.337,2.337,0,0,0,.03-.444.468.468,0,0,0,0-.292l-.353-.061c-.353-.036-.675-.067-1.028-.1-.578-.03-1.156-.1-1.764-.164h-.03c-.45.578-.9,1.192-1.314,1.831q-1.98,2.692-3.948,5.779c-1.861,2.883-3.723,6.028-5.523,9.4-.316.578-.639,1.156-.925,1.764-1.065,1.989-2.056,4.045-3.017,6.192.864-.03,1.734-.03,2.6,0C39.827,75.677,40.21,75.708,40.624,75.775Z" transform="translate(26.894 115.261)" fill="#ef9f0c"/>
    <path id="Trazado_2102" data-name="Trazado 2102" d="M38.757,84.978l.608.1.286.03a1.158,1.158,0,0,1,.389.128,2.673,2.673,0,0,1,1.058,1,10.237,10.237,0,0,1,.578,1.156,20.15,20.15,0,0,1,.766,2.312c.42,1.6.712,3.175.967,4.781.225,1.569.414,3.145.541,4.745.134,1.223.195,2.409.262,3.6a25.855,25.855,0,0,1,5.134,3.692v1.734a214.414,214.414,0,0,1,3.078-29.49,28.668,28.668,0,0,0-3.565-3.6c-.061.42-.128.87-.189,1.314-.517,3.017-1.125,6.065-1.928,9.051.128-3.115.322-6.162.578-9.24.067-.742.164-1.448.225-2.214-2.275-1.636-5.037-3.048-7.859-2.889l.864-4.076s2.695-1.314,7.512,1.253c.061-.383.091-.8.128-1.253.128-1.509.286-3.048.383-4.556.158-1.539.255-3.048.286-4.556,0-.353,0-.736-.03-1.089a7.278,7.278,0,0,0-.128-1.028.722.722,0,0,0-.1-.292h-.03l-.292-.091c-.353-.1-.706-.195-1.089-.262-.9-.158-1.794-.316-2.695-.414-.639,1.411-1.253,2.853-1.831,4.331-.383.9-.736,1.831-1.089,2.762-.255.608-.481,1.217-.706,1.861-.353.961-.706,1.953-1.028,2.981a120.617,120.617,0,0,0-3.784,13.668c-.256,1.125-.481,2.281-.706,3.437a1.409,1.409,0,0,0-.067.383.9.9,0,0,1-.03.286c.766.067,1.509.164,2.275.262C37.954,84.82,38.373,84.917,38.757,84.978Z" transform="translate(19.01 136.472)" fill="#ef9f0c"/>
    <path id="Trazado_2103" data-name="Trazado 2103" d="M44.638,79.068c1.156,1.472,2.305,2.822,3.4,4.076Z" transform="translate(66.683 259.729)" fill="#ef9f0c"/>
    <path id="Trazado_2104" data-name="Trazado 2104" d="M44.295,78.356c-.645-1.861-1.35-3.686-2.153-5.45A20.974,20.974,0,0,0,39.191,68a10.3,10.3,0,0,0-1-1,1.868,1.868,0,0,1-.255-.195,1.946,1.946,0,0,1-.286-.189,2.431,2.431,0,0,1-.292-.195l-.322-.195L34.921,65.01a149.967,149.967,0,0,0,1.606,16.175V77.973s4.623,2.439,9.4,5.554C45.414,81.793,44.9,80.059,44.295,78.356Z" transform="translate(17.292 188.273)" fill="#ef9f0c"/>
    <path id="Trazado_2105" data-name="Trazado 2105" d="M45.219,81.617C44.13,79.4,43.1,77.1,42.074,74.658l2.95,7.251Z" transform="translate(53.651 237.313)" fill="#ef9f0c"/>
    <path id="Trazado_2106" data-name="Trazado 2106" d="M46.063,80.767a.094.094,0,0,1,.03-.061c-.286-.292-.541-.578-.833-.9Z" transform="translate(69.845 263.48)" fill="#ef9f0c"/>
    <path id="Trazado_2107" data-name="Trazado 2107" d="M40.859,70.536,40.9,70.5a1.122,1.122,0,0,1-.067-.225Z" transform="translate(47.322 215.03)" fill="#ef9f0c"/>
    <path id="Trazado_2108" data-name="Trazado 2108" d="M47.688,86.761a.934.934,0,0,0-.225-.262c-.225-.316-.45-.608-.706-.961l-.675-.931-.639-.961-.322-.481c-.1-.195-.195-.353-.292-.547L43.74,80.66a2.219,2.219,0,0,0-.286-.444l-.322-.487a5.189,5.189,0,0,0-.645-.833,13.382,13.382,0,0,0-3.3-2.853,11.385,11.385,0,0,0-1.156-.578c.578.9,1.186,1.794,1.8,2.695,1.6,2.184,2.725,3.692,3.625,4.879l2.305,2.853C46.374,86.147,47.013,86.439,47.688,86.761Z" transform="translate(33.085 241.415)" fill="#ef9f0c"/>
    <path id="Trazado_2109" data-name="Trazado 2109" d="M47.924,88.222c-.45-.833-.931-1.667-1.381-2.5L45.327,83.41c-.389-.773-.8-1.539-1.156-2.312-.195-.414-.389-.8-.578-1.186L43.076,78.7c-.189-.353-.353-.742-.511-1.095l-.322-.541a3.013,3.013,0,0,0-.322-.547,21.663,21.663,0,0,0-6.192-6.259,122.245,122.245,0,0,0,4.24,12.61v.067C41.476,83.921,44.652,86.044,47.924,88.222Z" transform="translate(21.394 214.923)" fill="#ef9f0c"/>
    <path id="Trazado_2110" data-name="Trazado 2110" d="M57.829,116.962a10.843,10.843,0,0,1,1.539,1.861l.608.992.614.931.286.481.292.45.639.931c.481.578.9,1.186,1.381,1.8.766.992,1.569,1.989,2.4,2.95a75.334,75.334,0,0,1,8.985,4.842l3.34,4.24c-.481-.256-4.3-2.378-8.5-4.653,1.861,2.117,3.79,4.264,5.651,6.448a69.462,69.462,0,0,1-7.032-6c-.864-.833-1.7-1.7-2.531-2.567-.706-.389-1.381-.742-2.056-1.1a100.458,100.458,0,0,0,31.7,22.562c-9.179-6.162-34.271-26.54-42.775-70.24l.067.511s-2.409-2.178-4.556-3.978c.541,3.175.931,6.387,1.156,9.593-.9-3.625-1.77-7.251-2.7-10.846-3.753-3.078-8.467-6.77-10.426-7.634l-.706-.736c.03.353.1.669.158,1.028A135.321,135.321,0,0,0,38.32,82.375v.03a16.69,16.69,0,0,1,3.6,2.05A17.46,17.46,0,0,1,45.7,88.214a6.257,6.257,0,0,1,.383.572l.389.547c.225.383.414.8.639,1.223.195.383.383.736.578,1.119l.578,1.156c.8,1.509,1.606,3.017,2.439,4.526.961,1.734,1.892,3.5,2.822,5.231,2.439,1.6,4.684,3.017,6.1,3.814l2.889,5.651c-.322-.225-3.078-2.184-6.387-4.556,1.411,2.725,2.792,5.487,4.076,8.279-2.05-2.792-3.948-5.712-5.773-8.668-.322-.481-.608-.961-.9-1.442-3.431-2.409-7.056-4.879-9.143-6.126a106.294,106.294,0,0,0,7.506,14.119,10.772,10.772,0,0,1,1.989.572A11.646,11.646,0,0,1,57.829,116.962Z" transform="translate(18.741 202.485)" fill="#ef9f0c"/>
    <path id="Trazado_2111" data-name="Trazado 2111" d="M67.644,84.132H57.668l-.961,11h9.976a2.913,2.913,0,0,0,3.273-2.987l.45-5.006C70.564,85.123,69.67,84.132,67.644,84.132Z" transform="translate(128.03 285.469)" fill="#ef9f0c"/>
    <path id="Trazado_2112" data-name="Trazado 2112" d="M95.631,84.052h-8.5a2.942,2.942,0,0,0-3.273,2.987l-1.381,16.01c-.195,1.989.736,2.987,2.725,2.987h8.5a2.945,2.945,0,0,0,3.273-2.987l1.381-16.01C98.557,85.05,97.627,84.052,95.631,84.052Z" transform="translate(258.905 285.063)" fill="#ef9f0c"/>
    <path id="Trazado_2113" data-name="Trazado 2113" d="M469.091,146.691a17.155,17.155,0,0,0-14.538-7.957H388.394a17.286,17.286,0,0,0-15.98,10.712l-31.321,77.041a.465.465,0,0,1-.894-.061L322.936,152.05a17.2,17.2,0,0,0-16.783-13.316h-59.2a.491.491,0,0,1-.292-.87c2.214-1.442,1.673-3.431,2.567-7.731a.4.4,0,0,1,.225-.353c9.24-5.39,10.238-12.8,10.238-16.3a21.38,21.38,0,0,0-1.156-7,.409.409,0,0,1,.067-.383,23.921,23.921,0,0,0,3.686-12.993,22.763,22.763,0,0,0-.414-3.917A22.94,22.94,0,0,0,264.7,79.3a25.677,25.677,0,0,0-4.459-15.141.471.471,0,0,1-.067-.353c.383-1.448,1.283-3.048,1.283-4.653a29.527,29.527,0,0,0-1.636-11.1,5.588,5.588,0,0,1-.286-1c-.45-2.92-4.076-7.8-4.465-8.212a12.907,12.907,0,0,0-1.022-1c-3.212-2.439-12.932-9.879-32.507-9.879-9.5,0-21.242,1.089-28.3,9.2a.19.19,0,0,1-.164.067c-11.071,1.794-13.443,12.257-14.119,19.605a19.352,19.352,0,0,0,.9,5.87.519.519,0,0,1-.1.42,20.314,20.314,0,0,0-3.34,19.478.5.5,0,0,1-.03.383,19.147,19.147,0,0,0-2.05,4.136,20.312,20.312,0,0,0-.547,11.649.533.533,0,0,1-.067.389c-1.892,2.658-6.545,5.195-7.762,8.437-.067.128-.158.255-.322.255a145.057,145.057,0,0,0-18.194,1.989c-39.752,6.8-65.234,24.934-66.292,25.7-.255.164-.511.389-.766.578-1.989,1.636-48.871,40.561-48.871,110.8,0,36.254,11,73.859,37.86,100.722a.465.465,0,0,1-.316.8H59.884a8.21,8.21,0,0,0-8.151,7.573l-4.106,46.589a8.254,8.254,0,0,0,8.151,9.051H414a8.233,8.233,0,0,0,8.151-7.573l4.106-46.589a8.238,8.238,0,0,0-8.151-9.051H384.83a.459.459,0,0,1-.42-.669l85.77-184.533A17.265,17.265,0,0,0,469.091,146.691ZM205.431,47.058a1.992,1.992,0,0,1,.511-1.156c1.095-1.344,4.526-3.37,15.372-3.37,14.441,0,23.2,6.065,24.995,7.446.225.164.353.255.353.255s-.158,2.476.547,3.084c.675.608,1.442,2.756,1.442,5.584,0,2.214-3.333,4.647-4.714,5.578-.195-.128-.353-.255-.547-.383-1.217-.833-2.567-1.636-3.911-2.439,6.192-.894,5.548-6.351-6.545-8.887a59.967,59.967,0,0,0-12.038-1.125c-2.531,0-4.909.134-7.026.322-1.6-.383-3.175-.675-4.617-.931-1.125-.158-2.312-.353-3.625-.511a.436.436,0,0,0-.195-.03ZM236.91,57.874V59.8A101.3,101.3,0,0,0,223.5,54.473C231.326,54.6,235.59,56.974,236.91,57.874ZM196.16,70.581a65.142,65.142,0,0,1,11.807,1.284h.128c.225.03.45.091.675.128a129.043,129.043,0,0,1,14.082,3.625.118.118,0,0,1,.1.03c.578.158,1.186.353,1.764.547,3.625,1.186,12.61,4.2,14.058,4.653a1.385,1.385,0,0,0,.353.03,20.053,20.053,0,0,0,7.89-1.989,1.169,1.169,0,0,0,.481-1.667c-1.442-2.281-5.323-5.006-10.554-7.835-.1-.03-.225-.128-.322-.158-3.242-1.764-6.959-3.978-10.907-5.712a1.063,1.063,0,0,0-.322-.158c-.45-.195-.931-.389-1.381-.608a75.461,75.461,0,0,0-10.718-3.632,48.389,48.389,0,0,0-12.415-1.667,59.942,59.942,0,0,0,10.2,2.731l-1.825,5.548c-6.643-.639-18.164-6.065-18.164-10.1,0-4.112,5.84-4.209,6.223-4.209a59.866,59.866,0,0,1,6.679.389,6.537,6.537,0,0,1,.736.061c.225.036.481.067.706.1,1.186.128,2.372.322,3.6.517.766.128,1.539.255,2.342.444.766.134,1.569.322,2.372.487.383.091.742.189,1.125.255a.782.782,0,0,0,.255.061c2.634.645,5.231,1.381,7.8,2.251.353.128.706.255,1.058.353l1.344.481a.4.4,0,0,1,.225.1A81.844,81.844,0,0,1,235.882,61.4a3.92,3.92,0,0,1,.639.322,1.538,1.538,0,0,1,.42.225,1.027,1.027,0,0,1,.286.158,55.72,55.72,0,0,1,5.359,3.212c.225.158.42.286.645.444.225.128.414.292.639.45,5.426,3.887,8.8,8.054,8.8,11.777v.256c-.128,3.437-3.948,5.231-7.062,6.132-.322.1-.639.189-.931.255-.353.1-.639.158-.961.225a7.037,7.037,0,0,1,.833.547l.772.578c2.628,1.922,5.134,3.3,5.42,7.792a3.942,3.942,0,0,1-3.175,4.045c-4.714,1.028-11.132-.158-11.132-.158.03-1.058.286-4.623.286-4.623s8.084,2.372,8.6.578c.225-.706-2.792-2.822-7.64-5.262a7.615,7.615,0,0,0-.706-.353,108,108,0,0,0-13.024-5.456,2.077,2.077,0,0,0-.389-.128,89.6,89.6,0,0,0-15.53-4.009,50.446,50.446,0,0,0-8.084-.675h-.578l5.84.833c-.1.03-1.283,3.4-1.509,3.656-4.526-.766-16.333-3.236-16.333-7.731C187.365,71.737,190.832,70.581,196.16,70.581Zm14.374-.213c.195-.639,2.737-8.723,2.737-8.723A140.491,140.491,0,0,1,237.9,72.272s-.791,6.375-.858,6.375C225.347,73.781,221.508,72.254,210.535,70.368ZM232.847,98.24c-7.221-2.822-22.568-6.643-28.73-8.151l2.622-8.808c0,.067,4.088.371,6.491.979,1.989.45,14.319,4.708,16.886,5.767.037,0,4.13,1.74,4.13,1.77C233.51,93.106,232.975,97.632,232.847,98.24ZM189.129,89.8h.036c1.636,0,8.407,1.223,16.844,3.273.255.1.547.164.864.262,5.329,1.284,11.235,2.95,16.88,4.812.286.1.547.158.8.255q3.659,1.25,7.026,2.6c.067.036.128.036.195.067,1.022.414,1.989.8,2.92,1.253a43.861,43.861,0,0,1,9.3,5.225c2.312,1.8,3.662,3.662,3.662,5.523,0,6.606-14.7,4.52-15.627,4.52,0,0,.322-3.911.45-4.909l9.4-.061s-3.048-2.889-10.1-6.034l-.195-.1c-2.147-.931-4.623-1.922-7.543-2.883-.833-.262-1.728-.517-2.628-.8a111.111,111.111,0,0,0-15.4-3.309l-2.02-.286s-15.311-2.056-17.263-3.656C184.737,93.873,184.256,89.834,189.129,89.8ZM229.4,116.684c-1.223-.383-10.134-2.591-11.673-3.035-1.636-.517-3.34-1.064-5.067-1.576l-2.312-.706c-1.764-.547-12.294-4.167-12.354-4.167l1.728-6.247c3.753.675,16.643,3.5,19.916,4.428l.48.134c.742.219,1.448.444,2.153.669,6.77,2.214,7.859,4.2,7.9,4.653A57.127,57.127,0,0,1,229.4,116.684Zm-43.73-10.359s1.922.578,4.97,1.509c3.048.961,7.287,2.245,11.844,3.656l1.247.383c3.145.967,6.454,2.026,9.629,3.017,3.242,1,6.351,2.026,9.082,2.889.316.1.639.195.931.292.353.128.639.219.961.316,2.117.706,3.948,1.32,5.359,1.764a1.185,1.185,0,0,0,.322.128c.669.262,1.217.45,1.636.614a16.536,16.536,0,0,1,4.234,2.245c.061.03.128.1.195.128a3.949,3.949,0,0,1,1.569,3.723c0,1.344-2.245,2.275-3.078,2.567a.8.8,0,0,1-.322.1v-1.509a21.751,21.751,0,0,0-5.292-2.537c-5.809-2.245-15.274-5.195-23.906-7.731-9.818-2.92-18.547-5.359-19.38-5.584a8.57,8.57,0,0,1-1.764-.706.032.032,0,0,0-.037-.03,2.929,2.929,0,0,1-1.247-2.822C182.62,106.355,185.406,106.325,185.667,106.325ZM48.655,245.357A135.808,135.808,0,0,1,70.31,171.686c10.749-16.655,21.406-25.415,21.856-25.767l.061-.061.067-.067c.992-.675,23.742-16.911,60.161-23.134a132.44,132.44,0,0,1,22.045-1.928c3.723,0,7.154.195,10.268.481-1.284-.541-2.439-1.022-3.4-1.442-1.509-.639-2.506-1.058-2.762-1.156a2.222,2.222,0,0,1-1.381-2.792c2.859.773,14.441,4.045,26.12,7.446.067.03.164.067.255.1,4.076,1.217,8.443,2.5,12.647,3.82l.511.158c.481.128.961.286,1.442.42l.067.091h.225c2.537.839,4.842,1.575,6.7,2.214a1.372,1.372,0,0,0,.353.128l.067.036c.195.03.322.128.481.158a1.946,1.946,0,0,0,.353.128,23.65,23.65,0,0,1,4.362,1.8,3.282,3.282,0,0,1-1.667.511l.067-.511-8.954-.839-2.695-.353-.547-.091-2.342-.292-.864-.128L207,129.683l-1.728-.256h-.067a2.078,2.078,0,0,0-.383-.164,50.579,50.579,0,0,0-4.879-1.728c-.736-.225-1.509-.45-2.312-.645-.414-.128-.833-.225-1.253-.322-.608-.158-1.186-.286-1.825-.414-.773-.195-1.575-.353-2.409-.517-1.028-.189-2.117-.353-3.206-.511-1.028-.158-2.117-.286-3.242-.42-1.959-.225-4.009-.383-6.223-.481-.42-.03-.87-.061-1.35-.061-1.186-.036-2.372-.067-3.625-.067a130.1,130.1,0,0,0-21.467,1.892,166.5,166.5,0,0,0-18.225,4.2c-2.537.742-5.006,1.509-7.348,2.312-1.186.42-2.372.833-3.528,1.284-1.156.42-2.312.87-3.4,1.284-.645.225-1.283.517-1.928.773-1.314.511-2.567,1.058-3.784,1.606-.614.255-1.223.541-1.8.8-1.959.87-3.753,1.734-5.39,2.567-.833.42-1.667.839-2.439,1.253-1.156.608-2.245,1.186-3.206,1.734q-1.5.821-2.695,1.539a2.6,2.6,0,0,1,.706.1,1.855,1.855,0,0,1,.833.45.894.894,0,0,1,.158.225l.03.061.036.037v.091a.217.217,0,0,1,.03.134v.091a1.5,1.5,0,0,1-.128.481,6.938,6.938,0,0,1-.292.742,14.573,14.573,0,0,1-.639,1.314c-.87,1.539-1.794,3.048-2.762,4.5a6.488,6.488,0,0,1,1.32.481c8.887-9.885,16.266-13.285,16.266-13.285l.1.511s-6.77,4.173-15.08,13.833l.03.061-3.175,4.428a5.02,5.02,0,0,0,.03-.675,115.154,115.154,0,0,0-12.677,20.573c.036.03.067.1.128.158l-2.567,5.231v-.1c-6.509,15.207-11.454,34.977-11.807,60.033-1.217,82.947,46.717,109.773,46.717,109.773l.225.322c.195.061.353.158.547.225.931.383,1.861.8,2.859,1.186H111.51a103.5,103.5,0,0,1-33.657-24.964C58.759,309.885,48.655,280.139,48.655,245.357Zm179.557-80.119c1,1.217,1.989,2.5,2.889,3.814.511.675.961,1.35,1.411,2.026,1.314,1.922,2.6,3.911,3.784,6.028,1.417,2.342,2.731,4.848,3.984,7.415.414.8.8,1.606,1.15,2.439.773,1.636,1.509,3.333,2.214,5.067.547,1.35,1.095,2.695,1.606,4.076a2.687,2.687,0,0,1,.164.45c.414,1.125.833,2.245,1.186,3.37.316.894.608,1.794.894,2.695.353,1.156.706,2.312,1.028,3.467.353,1.15.675,2.342.961,3.528.322,1.156.614,2.342.87,3.528.286,1.186.548,2.409.8,3.625.158.833.322,1.7.481,2.537.286,1.539.547,3.078.766,4.617.292,1.959.547,3.887.742,5.876.1.833.189,1.7.255,2.567.1.961.158,1.959.225,2.95.061.9.128,1.831.158,2.762.1,1.922.128,3.851.128,5.773,0,53.682-27.69,97.224-61.864,97.224-23.87,0-44.631-21.3-54.9-52.526a143.007,143.007,0,0,1-6.928-44.7,141.13,141.13,0,0,1,9.015-50.6c10.846-27.951,30.451-46.626,52.812-46.626a16.4,16.4,0,0,1,1.764.1c.322.03.675.067,1.028.128a23.529,23.529,0,0,1,2.731.481c.316.067.669.128,1.022.225.42.1.87.195,1.284.322l-.03.286-.1.614-.061.639-.128.87-.128.961a31.642,31.642,0,0,0-7.385-1.253c-20.275,0-38.858,16.655-49.667,44.5a137.8,137.8,0,0,0-8.8,49.351,140.936,140.936,0,0,0,6.77,43.67c10.207,30.932,30.038,50.154,51.693,50.154,32.252,0,58.5-42.1,58.5-93.824,0-3.85-.164-7.671-.487-11.387v-.036c-2.4-28.012-13.346-51.754-25.475-66.292l.578-4.2.03-.225C226.223,162.829,227.22,164.015,228.212,165.238ZM134.71,353.81a19.885,19.885,0,0,0,1.734,2.506h-1.861a14,14,0,0,1-1.284-1.7,5.925,5.925,0,0,1-.864-2.05,2.931,2.931,0,0,1,.091-1.381,3.135,3.135,0,0,1,.164-.322c.061-.128.128-.195.158-.286.067-.1.128-.164.195-.262l.225-.225a8.977,8.977,0,0,1,1.7-1.314c.608-.353,1.223-.675,1.831-.961,1.217-.578,2.439-1.089,3.692-1.539s2.5-.87,3.753-1.283c.608-.195,1.247-.42,1.861-.675a5.355,5.355,0,0,0,.864-.383,1.993,1.993,0,0,0,.8-.548,2.074,2.074,0,0,1-.645.773c-.256.189-.541.383-.8.578-.578.383-1.156.669-1.734.992-1.186.645-2.378,1.186-3.565,1.764s-2.372,1.125-3.5,1.734c-.578.286-1.119.608-1.636.931a6.286,6.286,0,0,0-1.381,1.089,1.421,1.421,0,0,0-.383.517,1.016,1.016,0,0,0-.03.541A4.757,4.757,0,0,0,134.71,353.81Zm-11.168-6.643c-1.15-1.411-2.178-2.883-3.175-4.392-.541-.87-1.058-1.734-1.569-2.6a5.31,5.31,0,0,0-2.859,4.015A66.571,66.571,0,0,0,128.1,354.9l-.8.608S73.936,324.934,84.2,229.541c10.913-101.877,77.911-104.67,77.911-104.67l.931.353s-23.809,1.825-45.02,26.406c.706-.195,3.048-.8,6.132-1.539a57.26,57.26,0,0,1,9.818-8.151,24.915,24.915,0,0,1,5.937-2.822,13.976,13.976,0,0,1,3.333-.608h.833c.292.03.547.03.839.061a12.967,12.967,0,0,1,1.6.164,30.2,30.2,0,0,1,6.357,1.314l.766.286.742.322c.255.1.511.225.736.322.255.128.481.255.736.383a8.987,8.987,0,0,1,2.506,1.989,7.545,7.545,0,0,0-1.32-.9l-.316-.189-.389-.164a4.141,4.141,0,0,0-.706-.316,18.419,18.419,0,0,0-2.981-.931,37.282,37.282,0,0,0-6.229-.833c-.541-.036-1.058-.036-1.569-.036-.255,0-.547-.03-.8-.03l-.736.03a11.992,11.992,0,0,0-2.92.645c-.481.158-.931.353-1.411.541-.45.225-.931.42-1.381.645q-1.4.721-2.695,1.539a51.7,51.7,0,0,0-5.073,3.656c-1.022.8-2.02,1.642-2.981,2.476a88.464,88.464,0,0,1,15.816-2.251s6.545-.353,7.865,3.948l-1.576,2.117s-1.636-6.509-25.926-.353c-2.409,2.251-4.751,4.556-7.056,6.9a77.841,77.841,0,0,1,5.037-6.381c-1.831.481-3.759,1.058-5.84,1.667a111.385,111.385,0,0,0-12.707,20.792,59.029,59.029,0,0,1,8.534-3.5c.414-.541.8-1.089,1.186-1.606a66.112,66.112,0,0,1,4.587-5.353,29.271,29.271,0,0,1,5.554-4.526,15.147,15.147,0,0,1,3.34-1.575,12.615,12.615,0,0,1,1.855-.414,4.683,4.683,0,0,1,.967-.037,2.222,2.222,0,0,1,.45,0l.444.037a38.041,38.041,0,0,1,7.093.894c.292.067.578.164.87.225l.864.262c.292.091.547.219.833.316.128.067.292.1.42.164l.414.189a2.323,2.323,0,0,1,.389.195l.414.195a5.541,5.541,0,0,1,.742.481,6.2,6.2,0,0,1,.706.541,3.084,3.084,0,0,1,.578.675,5.071,5.071,0,0,0-1.417-1.028c-.255-.091-.511-.255-.766-.353l-.42-.158a2.157,2.157,0,0,1-.414-.128,20.221,20.221,0,0,0-3.37-.773c-.578-.1-1.156-.128-1.734-.189s-1.156-.1-1.734-.128-1.156-.067-1.734-.067c-.578-.03-1.156,0-1.734-.03l-.444.03h-.42a3.294,3.294,0,0,0-.8.1,9.222,9.222,0,0,0-1.569.383,16.14,16.14,0,0,0-2.956,1.509,32.006,32.006,0,0,0-5.164,4.4,66.185,66.185,0,0,0-4.428,4.97,51.768,51.768,0,0,1,12.1-1.922c7.093-.292,9.946,4.361,9.946,4.361l-1.569,2.281a14.075,14.075,0,0,0-11.01-2.92,68.355,68.355,0,0,0-13.766,3.85v.03c-2.695,3.723-5.262,7.573-7.731,11.485.9-2.117,1.959-4.167,3.078-6.223.8-1.509,1.673-2.981,2.573-4.459a52.049,52.049,0,0,0-7.348,3.625A165.735,165.735,0,0,0,91.941,206.6a62.463,62.463,0,0,1,7.665-3.784c.067-.134.1-.225.164-.353.961-2.026,2.02-4.045,3.175-6a44.413,44.413,0,0,1,3.881-5.615,25.548,25.548,0,0,1,2.439-2.5,11.921,11.921,0,0,1,1.442-1.065,10.607,10.607,0,0,1,1.636-.833,5.415,5.415,0,0,1,1.9-.383h1.734l1.7.067,1.734.091c1.125.1,2.275.225,3.4.42.578.1,1.125.195,1.7.322.255.1.541.158.8.256a3.738,3.738,0,0,1,.8.353,9.429,9.429,0,0,0-1.667-.353c-.547-.067-1.125-.1-1.667-.128-1.156-.03-2.281-.067-3.4-.03l-1.7.03-1.7.1-.839.03-.45.03a1.506,1.506,0,0,0-.383.03,4.115,4.115,0,0,0-1.442.389,9.624,9.624,0,0,0-2.567,1.764,19.132,19.132,0,0,0-2.184,2.409,48.805,48.805,0,0,0-3.686,5.487c-.9,1.5-1.77,3.048-2.567,4.617,14.21-4.939,21.947.195,21.947.195v3.078c-9.307-3.017-18.583-.03-25.287,3.5-.1.164-.158.292-.225.42-1.861,4.039-3.656,8.115-5.456,12.221a106.9,106.9,0,0,1,3.79-11.612,61.3,61.3,0,0,0-6.259,4.2c-.961,5.037-1.831,10.329-2.5,15.95-.578,4.136-1.028,8.115-1.35,12.032a63.962,63.962,0,0,1,6.673-3.534,56.5,56.5,0,0,1,2.829-8.948,24.258,24.258,0,0,1,3.528-6.1,16.843,16.843,0,0,1,1.253-1.314,17.6,17.6,0,0,1,1.472-1.119,10.3,10.3,0,0,1,1.7-.839c.316-.091.608-.158.931-.219l.256-.067h.195l.444-.067a36.581,36.581,0,0,1,7.032-.444l.864.061.9.1a4.237,4.237,0,0,1,.864.128l.42.067.45.091.414.1.42.128c.286.1.578.195.833.292a6.64,6.64,0,0,1,.8.414,2.128,2.128,0,0,1,.669.517,4.326,4.326,0,0,0-1.539-.675c-.286-.067-.578-.158-.833-.195l-.414-.061-.45-.067a19.855,19.855,0,0,0-3.4-.061,14.115,14.115,0,0,0-1.7.128c-.578.03-1.156.128-1.7.189l-1.7.262c-.578.1-1.125.225-1.7.316l-.414.067-.195.067-.195.03c-.255.061-.511.158-.736.225a8.168,8.168,0,0,0-1.381.736,9.481,9.481,0,0,0-1.217,1.028,8.936,8.936,0,0,0-1.058,1.186,22.2,22.2,0,0,0-1.8,2.762,26.383,26.383,0,0,0-1.442,2.981,54.172,54.172,0,0,0-2.245,6.32c-.128.42-.225.8-.353,1.223,4.587-1.892,10.365-3.565,15.943-3.273l7.16.675.541,4.039A51.755,51.755,0,0,0,93.285,244.4c-.864,3.911-1.636,7.89-2.312,11.874,0-2.281.195-4.556.389-6.837.158-1.411.353-2.853.541-4.3a43.99,43.99,0,0,0-5.87,3.917A164.1,164.1,0,0,0,87.16,278.57c.414-.195,3.723-1.9,7.348-3.6a56.155,56.155,0,0,1,1.089-9.532,19.771,19.771,0,0,1,2.5-6.478,7.506,7.506,0,0,1,2.731-2.567c.128-.067.286-.128.414-.195l.481-.158.487-.128c.158-.037.286-.037.414-.067.578-.1,1.125-.195,1.7-.286a59.345,59.345,0,0,1,6.8-.773c1.156-.067,2.281-.128,3.431-.128,1.156.03,2.281.061,3.437.189-1.156.037-2.281.164-3.4.292s-2.251.255-3.37.45c-2.214.353-4.459.766-6.643,1.253-.547.128-1.089.255-1.667.383l-.389.1-.353.091-.316.134a.889.889,0,0,0-.322.158,5.6,5.6,0,0,0-2.056,2.086,17.193,17.193,0,0,0-1.344,2.889,31.1,31.1,0,0,0-.87,3.108,54.654,54.654,0,0,0-.992,6.484c-.067.675-.128,1.314-.195,1.989,4.781-2.056,11.071-4.106,17.263-4.142h5.554l.833,2.92s-13.93,1.9-23.936,6.868c-.164,4.076-.195,8.151-.164,12.257-.383-2.178-.639-4.392-.833-6.643-.128-1.636-.225-3.3-.286-4.97a32.672,32.672,0,0,0-6.29,4.97,131.154,131.154,0,0,0,7.506,26.443,29.536,29.536,0,0,1,6.8-4.106,39.544,39.544,0,0,1-.706-8.7,20.41,20.41,0,0,1,.481-3.3,9.159,9.159,0,0,1,1.478-3.145,5.693,5.693,0,0,1,1.381-1.253,5.289,5.289,0,0,1,1.7-.736c.547-.128,1.064-.255,1.606-.353l1.575-.353c2.117-.45,4.234-.833,6.381-1.156l3.212-.481c.548-.1,1.058-.164,1.606-.255a5.311,5.311,0,0,0,1.539-.42,4.028,4.028,0,0,1-.706.383l-.773.292c-.541.158-1.058.286-1.569.45-1.058.286-2.086.541-3.145.833-2.086.511-4.142,1.089-6.229,1.636l-3.108.833a4.029,4.029,0,0,0-2.153,1.539,7.093,7.093,0,0,0-1.119,2.6,12.817,12.817,0,0,0-.42,2.987,33.279,33.279,0,0,0,.225,6.162c.067.639.128,1.247.225,1.861a29.3,29.3,0,0,1,8.376-1.606c10.4-.511,13.376-2.92,13.376-2.92l1.576,2.5a28.322,28.322,0,0,1-9.854,4.045c-3.5.639-8.309,1.156-12.543,3.5.736,3.753,1.606,7.476,2.537,11.2-.87-1.959-1.606-3.948-2.281-5.967-.511-1.509-.961-3.017-1.381-4.526a19.825,19.825,0,0,0-4.939,5.42A104.417,104.417,0,0,0,111.321,338.8a35.844,35.844,0,0,1,5.225-3.017.792.792,0,0,0-.091-.164c-.353-.864-.675-1.7-1-2.567a24.6,24.6,0,0,1-.706-2.695,11.671,11.671,0,0,1-.255-2.822,5.826,5.826,0,0,1,.8-2.95,4.14,4.14,0,0,1,1.119-1.223,5.165,5.165,0,0,1,1.448-.736,3.2,3.2,0,0,0,.353-.1l.353-.1.639-.158,1.35-.353c.9-.225,1.764-.42,2.664-.608s1.794-.383,2.695-.547l2.695-.511,2.695-.45c.45-.1.9-.158,1.344-.255.225-.067.42-.1.645-.164a1.314,1.314,0,0,0,.608-.286,1.735,1.735,0,0,1-.541.414,5.732,5.732,0,0,1-.645.262c-.42.189-.864.316-1.283.481-.864.286-1.764.541-2.628.8l-5.231,1.539-2.634.736-1.283.42-.639.189-.353.1c-.1.03-.164.067-.262.1a3.024,3.024,0,0,0-.961.511,3.387,3.387,0,0,0-.706.772,4.831,4.831,0,0,0-.548,2.184,11.058,11.058,0,0,0,.195,2.47,22.206,22.206,0,0,0,.645,2.5c.255.9.541,1.764.894,2.664a10.233,10.233,0,0,1,3.145-.675c13.188-.225,17.616-4.684,17.616-4.684l1.478,2.026-1.253,1.058a19.834,19.834,0,0,1-10.524,5.067,22.894,22.894,0,0,0-8.6,1.636Q121.568,343.42,123.542,347.167Zm-50.7-90.9c0-107.754,58.914-123.411,58.914-123.411l1.667.517S78.333,152.434,78.333,251.714C80.1,333.116,123.256,354.2,123.256,354.2l2.02,2.117h-1.539C102.878,342.964,72.847,309.082,72.847,256.27Zm82.625-125.4c6.673-.383,11.965.383,12.835,4.526l-1.089.547s.511-5.171-14.216-2.92c-3.37.511-6.034.931-8.151,1.284-3.5,1.794-6.928,3.656-10.365,5.548a74.881,74.881,0,0,1,6.868-4.909c-2.987.547-4.076.833-4.428.931l3.851-2.02s1.764-.578,4.361-1.223c1.417-.833,2.829-1.569,4.27-2.305a59.2,59.2,0,0,1,5.487-2.378,31.675,31.675,0,0,1,5.809-1.636l.766-.1.773-.061a12.287,12.287,0,0,1,1.569-.03c.547,0,1.028.061,1.509.091.517.067,1,.128,1.478.164a41.144,41.144,0,0,1,5.907,1.089,10.2,10.2,0,0,1,2.786,1.186,3.233,3.233,0,0,1,.322.225c.1.1.195.164.292.256l.256.292c.061.1.128.225.195.322a2.287,2.287,0,0,1,.286,1.442,2.773,2.773,0,0,0-.481-1.314,3.6,3.6,0,0,0-1.125-.833,10.445,10.445,0,0,0-2.725-.773c-.961-.158-1.928-.292-2.889-.353-.961-.1-1.959-.158-2.92-.225-.511-.03-.992-.03-1.478-.067-.481,0-.992-.061-1.442-.03a9.547,9.547,0,0,0-1.381.067l-.706.1a5.62,5.62,0,0,0-.706.128,35.284,35.284,0,0,0-5.517,1.6c-1.539.578-3.078,1.223-4.587,1.928C152.424,131.161,153.993,130.967,155.472,130.869Zm-.706,220.185,1.539,1.7c-1.058,1.411-3.3,2.6-5.682,3.565h-9.015A136.27,136.27,0,0,0,154.766,351.054ZM211.429,133.6l1.928.286.9.128.541.067,1.8.256,3.589.481,1.028.158,2.823.353.614.1-.1.773-.255,1.764-.578,4.136c-.322-.316-.645-.608-.967-.931l.967.967-.578,3.881v.03l-1.673,11.777v.03l-.481,3.309v.061l-.128.8-1.058,7.348v.128l-.353,2.02-18.158-2.372,1.472-10.013v-.061l.961-6.545.1-.706.128-.87.262-1.825,2.214-15.372.03-.1.1-.706Zm-4.587-3.437c.1.03.195.1.292.128.061.037.128.1.189.128a1.647,1.647,0,0,1-.255-.128A1.319,1.319,0,0,1,206.842,130.164ZM146.037,279.239v.578a2.586,2.586,0,0,1,.03.481,1.038,1.038,0,0,1-.03.322c-.353,2.153-2.756,3.79-4.97,3.79-.517,0-.87-.195-1.381-.195a.87.87,0,0,1-.262-.067.106.106,0,0,0-.061-.03c-.45-1.472-.864-3.017-1.284-4.556-.511-1.959-.961-3.911-1.381-5.9-.45-2.026-.8-4.076-1.156-6.162a2.681,2.681,0,0,1-.061-.517c-.225-1.284-.42-2.6-.578-3.911-.195-1.411-.353-2.859-.481-4.331-.128-1.028-.195-2.056-.292-3.084-.03-.45-.061-.894-.061-1.314-.067-.736-.1-1.478-.134-2.214-.128-2.147-.158-4.331-.158-6.515,0-.894,0-1.825.03-2.725V241.7c.037-.967.067-1.928.128-2.889.067-1.509.164-3.017.262-4.489.128-1.478.255-2.956.414-4.4.1-.736.195-1.448.255-2.184a129.8,129.8,0,0,1,3.212-16.813c.706-2.537,1.478-5.037,2.312-7.446l.03.036a16.325,16.325,0,0,1,1.831.894,5.821,5.821,0,0,1,2.6-1.892c.353,0,.864-.158,1.217-.158a4.366,4.366,0,0,1,4.27,4.234,2.211,2.211,0,0,1,.03.45v.481l.195.158a14.664,14.664,0,0,1,6.065,3.753,10.4,10.4,0,0,0-1.095.87,11.354,11.354,0,0,0-.894.9,11.91,11.91,0,0,0-1.575,2.372,12.651,12.651,0,0,0-.608,1.314,11.184,11.184,0,0,0-.383,1.223,2.814,2.814,0,0,0-.164.541c-.061.322-.091.645-.128,1,0,.128-.03.286-.03.414v3.017l1.223,1.253a11.744,11.744,0,0,1,1.7,2.117c.255.481.511.9.736,1.284a5.555,5.555,0,0,0,.292.481c.128.353.195.645.322,1.028l.061.322.03.061a15,15,0,0,1,1.125,5.043v.219a2.291,2.291,0,0,1,0,.645v.128a7.161,7.161,0,0,1-.128.931,5.783,5.783,0,0,1-.158.773,6.856,6.856,0,0,1-1.095,2.214,7.142,7.142,0,0,1-.45.578c-.383.444-.8.931-1.283,1.442-1.7,1.892-3.814,4.234-4.361,7.926l-.067.322v.158c0,.255-.091.736-.189,1.411-.1.833-.195,1.636-.322,2.409-.1.961-.225,1.892-.322,2.756-.03.322-.061.645-.1.931-.03.45-.061.87-.128,1.32-.03.414-.091.833-.128,1.247a.718.718,0,0,0,0,.255c-.061.359-.061.712-.1,1.065-.03.316-.03.639-.061.961-.03.414-.067.8-.067,1.186-.03.833-.03,1.569,0,2.275,0,.225.036.45.036.645-.036.03-.036.03-.036.067s.036.061.036.061v.03c0,.067,0,.1.03.128.03.322.061.578.1.839s.1.511.128.736a10.688,10.688,0,0,0,2.47,4.653l-.1.1a31.4,31.4,0,0,1-4.879,3.911,1.167,1.167,0,0,0-.03.353,1.93,1.93,0,0,0-.03.45,4.977,4.977,0,0,0,0,.675v.128A4.708,4.708,0,0,0,146.037,279.239Zm37.641-95.49a16.671,16.671,0,0,0,.578,3.084,3.6,3.6,0,0,1-.322.383c-.42.45-.8.864-1.186,1.314-1.095,1.223-2.214,2.47-3.309,3.662a2.884,2.884,0,0,1-.286.353,31.992,31.992,0,0,0-17.774-5.523,31.33,31.33,0,0,0-15.889,4.3.094.094,0,0,0-.061.03h-.067c.706-1.411,1.448-2.823,2.214-4.167a76.847,76.847,0,0,1,11.071-15.53c.578-.578,1.156-1.192,1.734-1.734,8.662-8.5,18.967-13.443,29.934-13.443a39.026,39.026,0,0,1,8.218.864l-.067.128v.773l-1.472,10.329a7.825,7.825,0,0,0-1.411.128.271.271,0,0,1-.164.037H195l-.517.128a15.511,15.511,0,0,0-5.067,2.372c-.353.286-.706.548-1.058.864-.322.292-.645.614-.961.931-.225.262-.45.517-.645.773a13.014,13.014,0,0,0-2.02,3.34c-.067.189-.164.414-.225.608l-.195.578c-.061.189-.128.414-.195.608-.061.322-.158.608-.219.931-.037.225-.067.45-.1.706-.037.195-.067.45-.1.675v.03a6.513,6.513,0,0,0-.067.773,4.981,4.981,0,0,0-.03.669v.036A9.041,9.041,0,0,0,183.678,183.749ZM147.515,303.4a32.375,32.375,0,0,0,13.863,3.242c17.677,0,32.757-15.238,39.077-37l.614.067h.061l.1.03,2.245.158.164.037h9.143a6.575,6.575,0,0,0,6.545-6.545v-5.712a6.571,6.571,0,0,0-6.545-6.545h-9.21c.067-1.417.1-2.859.1-4.3,0-1.539-.03-3.084-.128-4.593-.03-.8-.1-1.6-.164-2.4-.061-.833-.158-1.636-.255-2.47a4.626,4.626,0,0,0-.061-.645c-.1-.833-.225-1.7-.353-2.537a.35.35,0,0,0-.036-.189c-.128-.9-.286-1.764-.45-2.664-.128-.736-.255-1.442-.444-2.184a6.4,6.4,0,0,0-.164-.736l12.1,1.636a4.8,4.8,0,0,0,.9.061,6.934,6.934,0,0,0,6.9-6.028l6.192-45.47c.8,1.125,1.606,2.312,2.372,3.534.383.608.736,1.217,1.125,1.825a78.052,78.052,0,0,1,4.428,8.218,115.7,115.7,0,0,1,10.621,40.269c.225,2.178.353,4.362.45,6.606.091,2.184.158,4.368.158,6.545,0,1.861-.03,3.692-.128,5.523-.067,1.764-.164,3.528-.292,5.262-2.05,26.053-11.26,48.676-24.478,62.758-.487.517-.967,1.028-1.478,1.509-.481.517-1.028,1.028-1.539,1.509-1.095,1.028-2.251,1.989-3.4,2.889-.614.481-1.223.931-1.831,1.381-.645.45-1.284.864-1.928,1.284a9.634,9.634,0,0,1-1.022.639c-.675.42-1.381.833-2.056,1.186a42.423,42.423,0,0,1-4.526,2.123c-.8.316-1.6.608-2.4.864a41.487,41.487,0,0,1-7.093,1.575c-.706.061-1.35.128-2.02.158-.1,0-.195.03-.262,0-.706.061-1.375.1-2.086.1-17.038,0-32.307-11.807-42.7-30.707a2.075,2.075,0,0,1-.134-.262Zm72.454-127.383a3.636,3.636,0,0,1,3.139,4.136l-5.87,43.384a2.685,2.685,0,0,1-2.628,2.281.8.8,0,0,1-.292-.036l-13.8-1.892-4.459-.547h-.292l-1.156-.189-3.078-.383a5.156,5.156,0,0,0-2.634.736,2.54,2.54,0,0,0-.316.158,3.086,3.086,0,0,0-.8.578,1.869,1.869,0,0,0-.45.42.106.106,0,0,0-.03.061h-.037c-.03.067-.091.1-.128.164l-.1.128.036.03v.067a5.5,5.5,0,0,1,1.284.353c.128.061.286.158.414.225a4.146,4.146,0,0,1,.578.316c.353.262.706.547,1.058.833a8.567,8.567,0,0,1,1.35,1.636c.061.1.128.195.195.322.061.1.128.225.189.322l.255.511c.067.164.164.353.225.548a10.337,10.337,0,0,1,.645,3.723,12.733,12.733,0,0,0-3.79,3.625,11.368,11.368,0,0,0-1.119,2.245c-.1.255-.195.547-.292.8-.061.292-.128.578-.189.833a10.985,10.985,0,0,0-.353,2.731,11.872,11.872,0,0,0,7.829,11.162c3.273,1.028,7.926.322,7.926.322l.353-.195h9.143a2.27,2.27,0,0,1,2.214,2.251v5.712a2.263,2.263,0,0,1-2.214,2.214h-8.985l-2.245-.164-10.335-1.217a1.069,1.069,0,0,0-.322-.036,2.5,2.5,0,0,0-2.6,2.439v15.53a3.281,3.281,0,0,1-3.273,3.273H167.6a3.261,3.261,0,0,1-3.273-3.273V274.4s-3.114-2.056-5.006-2.056a6.455,6.455,0,0,1-1.892-.189,6.814,6.814,0,0,1-4.654-4.818c-.87-3.461,1.253-16.491,1.253-17.2.8-5.554,7.537-6.77,7.537-15.019a18.235,18.235,0,0,0-1.381-6.929c-.158-.675-.353-1.186-.511-1.734-.353-.675-.87-1.344-1.217-2.02a14.273,14.273,0,0,0-2.409-3.145v-.833a6.3,6.3,0,0,1,.864-2.956,6.6,6.6,0,0,1,2.251-2.567,7.015,7.015,0,0,1,2.214-1.058c.414-.03.766-.03,1.15-.03a5.57,5.57,0,0,1,3.34.931,12.56,12.56,0,0,1,.773-2.47,14.226,14.226,0,0,1,1.314-2.184c1.028-1.058,2.245-2.087,3.273-3.273,2.823-2.853,5.773-5.809,8.6-8.76.961-.992,1.861-1.989,2.756-2.981,2.245-2.409,4.5-5.006,6.74-7.415a10.331,10.331,0,0,1-1.381-5.006,9.723,9.723,0,0,1,3.948-7.926,10.764,10.764,0,0,1,3.625-1.734,4.168,4.168,0,0,0,.864-.091,4.294,4.294,0,0,1,.712-.067l1.442.195ZM99.7,386.123l-.225,2.506c-.255,3.236-1.247,5.645-2.92,7.184s-4.136,2.311-7.409,2.311q-2.555,0-5.39-.1l-4.593-.225q-5.055-.237-10.493-.675l.614-6.77c9.076.517,15.238.742,18.48.742a2.58,2.58,0,0,0,2.725-2.47l.389-4.526H79.392c-3.5,0-6-.773-7.446-2.378-1.442-1.569-1.989-4.106-1.7-7.634l.128-1.478c.322-3.5,1.314-6.065,3.048-7.634s4.331-2.372,7.829-2.372H98.8l-.608,7H82.665a2.915,2.915,0,0,0-3.273,3.011l-.1,1c-.158,1.989.742,2.981,2.731,2.981h9.015c3.273,0,5.615.772,7,2.312C99.447,380.441,99.995,382.85,99.7,386.123Zm37.866-20.95-2.026,22.939c-.286,3.5-1.314,6.034-3.048,7.64-1.7,1.569-4.331,2.372-7.829,2.372H113.183c-3.534,0-6-.8-7.446-2.372-1.448-1.606-1.989-4.142-1.7-7.64l2.251-25.506h8.985l-2.214,25.506c-.195,1.989.736,2.987,2.725,2.987h7.506a2.942,2.942,0,0,0,3.273-2.987l2.184-25.22.03-.286h9.015Zm33.177,20.95-.225,2.506c-.292,3.236-1.253,5.645-2.92,7.184s-4.142,2.311-7.415,2.311c-1.7,0-3.5-.03-5.39-.1l-4.587-.225q-5.1-.237-10.493-.675l.578-6.77c9.112.517,15.274.742,18.51.742a2.644,2.644,0,0,0,1.861-.675,2.571,2.571,0,0,0,.839-1.794l.414-4.526H150.4c-3.5,0-5.973-.773-7.415-2.378-1.442-1.569-2.02-4.106-1.7-7.634l.134-1.478a12.8,12.8,0,0,1,1.892-6.223,6.05,6.05,0,0,1,1.156-1.411,7.315,7.315,0,0,1,2.275-1.411v-.03h.03a14.507,14.507,0,0,1,5.523-.931h17.549l-.286,3.236c-.322,0-.675,0-1-.03.322.03.645.03,1,.067l-.292,3.333-.03.389h-15.56a2.941,2.941,0,0,0-3.273,3.011l-.067,1c-.195,1.989.736,2.981,2.725,2.981h8.985q4.909,0,7.026,2.312C170.454,380.441,171.032,382.85,170.746,386.123Zm36.674-13.51-.42,5.006c-.316,3.5-1.344,6.034-3.048,7.6-1.734,1.606-4.331,2.378-7.829,2.378h-12l-.894,10.013h-8.985l2.47-28.237.286-3.37.292-3.4h21.017a12.489,12.489,0,0,1,5.712,1.119,5.184,5.184,0,0,1,1.7,1.253C207.165,366.548,207.742,369.115,207.42,372.612Zm32.538-3.011H221.186l-.578,6.77h14.757l-.608,6.989H220l-.645,7.257h18.772l-.639,7H209.732l3.078-35.007h27.757Zm32.051,28.012h-9.5l-10.171-21.023-1.831,21.023H241.5l3.078-35.007h9.5l10.171,21.017,1.831-21.017h9.015Zm-26.534-49.9a144.951,144.951,0,0,0,20.086-38.6.45.45,0,0,1,.87.036l11.229,38.694a.443.443,0,0,1-.42.608H245.858A.455.455,0,0,1,245.475,347.715Zm62.569,38.408-.225,2.506c-.286,3.236-1.283,5.645-2.95,7.184-1.636,1.539-4.106,2.311-7.379,2.311q-2.555,0-5.389-.1l-4.593-.225q-5.1-.237-10.493-.675l.578-6.77c9.082.517,15.274.742,18.486.742a2.679,2.679,0,0,0,1.892-.675,2.723,2.723,0,0,0,.833-1.794l.42-4.526H287.7c-3.5,0-5.967-.773-7.415-2.378-1.442-1.569-2.02-4.106-1.7-7.634l.128-1.478c.286-3.5,1.314-6.065,3.017-7.634,1.734-1.569,4.362-2.372,7.859-2.372h17.549l-.608,7h-15.56a2.947,2.947,0,0,0-3.273,3.011l-.1,1c-.158,1.989.736,2.981,2.762,2.981h8.985q4.909,0,7.026,2.312C307.759,380.441,308.336,382.85,308.044,386.123ZM330.472,369.6h-4.489l-1.831,21.017h4.5l-.614,7h-18l.608-7h4.5l1.831-21.017h-4.5l.608-7h18.005Zm35.81,2.5-1.411,16.01c-.286,3.5-1.314,6.034-3.048,7.64-1.7,1.569-4.331,2.372-7.829,2.372H341.482c-3.5,0-5.973-.8-7.415-2.372-1.442-1.606-2.02-4.142-1.7-7.64l1.411-16.01c.286-3.5,1.314-6.034,3.011-7.634,1.734-1.576,4.367-2.378,7.865-2.378H357.14c3.528,0,6,.8,7.445,2.378C366.027,366.067,366.575,368.6,366.283,372.1ZM347.547,360.55l1.861-4.234,1.855-4.27h9.021l-3.145,4.27-3.115,4.234Zm44.247,23.073,1.825-21.017H402.6l-3.048,35.007h-9.5L379.89,376.591l-1.831,21.023h-9.015l3.078-35.007h9.5ZM408.061,255.88l-41.583,89.426H294.954l-23.839-82.333L262.9,234.639c1.1,26.7-3.333,53.457-12.221,75.471-8.248,20.408-19.867,36.127-33.791,46.206h-5.9l.03-.036c.961-.572,1.892-1.217,2.853-1.892.481-.322.931-.675,1.411-1.028.706-.511,1.411-1.022,2.086-1.6.706-.517,1.381-1.095,2.056-1.673.675-.541,1.314-1.119,1.959-1.7a84.261,84.261,0,0,0,8.182-8.632c.511-.608,1.028-1.253,1.509-1.892.286-.353.608-.742.864-1.125.706-.9,1.411-1.831,2.086-2.792q1.442-2.016,2.792-4.136c.45-.742.931-1.509,1.381-2.251a117.684,117.684,0,0,0,6.381-11.965c.645-1.35,1.253-2.695,1.831-4.076.773-1.764,1.509-3.565,2.184-5.39.481-1.283.961-2.567,1.411-3.881.45-1.284.9-2.6,1.314-3.948.42-1.32.833-2.634,1.223-3.978.353-1.125.669-2.251.961-3.37.414-1.575.833-3.175,1.217-4.812.322-1.381.645-2.792.931-4.173.42-1.959.8-3.917,1.156-5.907s.675-3.978.961-6q.922-6.022,1.35-12.129c.1-1.253.195-2.506.255-3.723.1-1.253.164-2.5.195-3.753.1-2.506.158-5.006.158-7.543,0-1.922-.03-3.814-.1-5.742-.03-.8-.061-1.636-.091-2.439v-.383c-.067-1.186-.134-2.409-.225-3.6a3.571,3.571,0,0,0-.037-.608c-.061-.9-.128-1.764-.189-2.634-.128-1.442-.262-2.853-.42-4.3-.158-1.728-.353-3.461-.608-5.195a153.337,153.337,0,0,0-13.188-45.47l-.03-.1c-.578-1.217-1.192-2.433-1.8-3.625a10.144,10.144,0,0,0-.511-.991c-1.059-1.989-2.184-3.948-3.34-5.87-.706-1.192-1.442-2.378-2.214-3.534-.736-1.119-1.472-2.214-2.245-3.273a99.629,99.629,0,0,0-7.379-9.24l.061-.511.517-3.79c4.745,4.945,12.093,14.155,12.093,14.155h66.164L336.026,284.44v.061l52.4-128.728h66.164Z" transform="translate(0 0)" fill="#ef9f0c"/>
    <path id="Trazado_2114" data-name="Trazado 2114" d="M62.051,61.386c-4.587,0-8.309,5.292-8.309,11.874s3.723,11.9,8.309,11.9c4.623,0,8.346-5.329,8.346-11.9S66.674,61.386,62.051,61.386Zm6.837,11.551a13.125,13.125,0,0,1-1.028,5.2,13.326,13.326,0,0,1-.736,1.344,5.469,5.469,0,0,1-.9,1.156,4.678,4.678,0,0,1-3.37,1.575,4.167,4.167,0,0,1-2.372-.742.9.9,0,0,1-.225-.158,2.917,2.917,0,0,0,.511.03c2.889,0,5.262-3.6,5.262-8.084,0-4.459-2.372-8.084-5.262-8.084a3.611,3.611,0,0,0-1.539.353A4.787,4.787,0,0,1,62.854,63.7a4.581,4.581,0,0,1,3.37,1.569,8.851,8.851,0,0,1,1.636,2.506A13.074,13.074,0,0,1,68.889,72.938Z" transform="translate(112.959 169.852)" fill="#ef9f0c"/>
  </g>
</svg>
